<svg width="36" height="41" viewBox="0 0 36 41" fill="none" xmlns="http://www.w3.org/2000/svg">
<path fill-rule="evenodd" clip-rule="evenodd" d="M18 13.9995C15.7908 13.9995 14 15.7904 14 17.9995C14 20.2086 15.7908 21.9995 18 21.9995C20.2091 21.9995 22 20.2086 22 17.9995C22 15.7904 20.2091 13.9995 18 13.9995ZM9.99996 17.9995C9.99996 13.5812 13.5817 9.99949 18 9.99949C22.4182 9.99949 26 13.5812 26 17.9995C26 22.4178 22.4182 25.9995 18 25.9995C13.5817 25.9995 9.99996 22.4178 9.99996 17.9995Z" fill="#1F1B2D"/>
<path fill-rule="evenodd" clip-rule="evenodd" d="M18 4C15.2311 4 12.5244 4.82107 10.2221 6.35938C7.91983 7.89768 6.12541 10.0841 5.06576 12.6423C4.00612 15.2004 3.72883 18.0153 4.26896 20.731C4.8091 23.4467 6.14239 25.9413 8.10026 27.8992L16.5875 36.3845C16.9625 36.7591 17.4709 36.9696 18.001 36.9696C18.5311 36.9696 19.0395 36.7591 19.4145 36.3845L27.8998 27.8992C29.8576 25.9413 31.1909 23.4467 31.7311 20.731C32.2712 18.0153 31.9939 15.2004 30.9343 12.6423C29.8746 10.0841 28.0802 7.89768 25.7779 6.35938C23.4756 4.82107 20.7689 4 18 4ZM30.7283 30.7276C33.2455 28.2102 34.9598 25.0029 35.6542 21.5113C36.3487 18.0196 35.9922 14.4005 34.6297 11.1115C33.2673 7.82247 30.9602 5.01131 28.0002 3.03348C25.0401 1.05566 21.56 0 18 0C14.44 0 10.9599 1.05566 7.99984 3.03348C5.03978 5.01131 2.73267 7.82247 1.37027 11.1115C0.00786066 14.4005 -0.348654 18.0196 0.345805 21.5113C1.04026 25.0029 2.75451 28.2102 5.27176 30.7276L13.76 39.2138C14.885 40.3377 16.4108 40.9696 18.001 40.9696C19.5913 40.9696 21.1165 40.3382 22.2415 39.2143L30.7283 30.7276Z" fill="#1F1B2D"/>
</svg>
