<svg width="48" height="48" viewBox="0 0 48 48" fill="none" xmlns="http://www.w3.org/2000/svg">
<path fill-rule="evenodd" clip-rule="evenodd" d="M24 17.9997C21.7908 17.9997 20 19.7906 20 21.9997C20 24.2089 21.7908 25.9997 24 25.9997C26.2091 25.9997 28 24.2089 28 21.9997C28 19.7906 26.2091 17.9997 24 17.9997ZM16 21.9997C16 17.5815 19.5817 13.9997 24 13.9997C28.4182 13.9997 32 17.5815 32 21.9997C32 26.418 28.4182 29.9997 24 29.9997C19.5817 29.9997 16 26.418 16 21.9997Z" fill="#1F1B2D"/>
<path fill-rule="evenodd" clip-rule="evenodd" d="M24 8.00024C21.2311 8.00024 18.5244 8.82131 16.2221 10.3596C13.9198 11.8979 12.1254 14.0844 11.0658 16.6425C10.0061 19.2006 9.72883 22.0155 10.269 24.7312C10.8091 27.447 12.1424 29.9415 14.1003 31.8995L22.5875 40.3847C22.9625 40.7594 23.4709 40.9698 24.001 40.9698C24.5311 40.9698 25.0395 40.7594 25.4145 40.3847L33.8998 31.8995C35.8576 29.9415 37.1909 27.4469 37.7311 24.7312C38.2712 22.0155 37.9939 19.2006 36.9343 16.6425C35.8746 14.0844 34.0802 11.8979 31.7779 10.3596C29.4756 8.82131 26.7689 8.00024 24 8.00024ZM36.7283 34.7278C39.2455 32.2105 40.9598 29.0032 41.6542 25.5115C42.3487 22.0199 41.9922 18.4007 40.6297 15.1117C39.2673 11.8227 36.9602 9.01155 34.0002 7.03373C31.0401 5.0559 27.56 4.00024 24 4.00024C20.44 4.00024 16.9599 5.0559 13.9998 7.03373C11.0398 9.01155 8.73267 11.8227 7.37027 15.1117C6.00786 18.4007 5.65135 22.0199 6.34581 25.5115C7.04026 29.0032 8.75451 32.2105 11.2718 34.7278L19.76 43.214C20.885 44.3379 22.4108 44.9698 24.001 44.9698C25.5913 44.9698 27.1165 44.3385 28.2415 43.2146L36.7283 34.7278Z" fill="#1F1B2D"/>
</svg>
