<svg width="33" height="27" viewBox="0 0 33 27" fill="none" xmlns="http://www.w3.org/2000/svg">
<path fill-rule="evenodd" clip-rule="evenodd" d="M10.9286 10.5C9.8089 10.5 9 11.3594 9 12.3V22.2C9 23.1406 9.8089 24 10.9286 24H28.0714C29.1911 24 30 23.1406 30 22.2V12.3C30 11.3594 29.1911 10.5 28.0714 10.5H10.9286ZM6 12.3C6 9.59551 8.26115 7.5 10.9286 7.5H28.0714C30.7389 7.5 33 9.59551 33 12.3V22.2C33 24.9045 30.7389 27 28.0714 27H10.9286C8.26115 27 6 24.9045 6 22.2V12.3Z" fill="#9691A4"/>
<path fill-rule="evenodd" clip-rule="evenodd" d="M20.25 15C19.0074 15 18 16.0074 18 17.25C18 18.4926 19.0074 19.5 20.25 19.5C21.4926 19.5 22.5 18.4926 22.5 17.25C22.5 16.0074 21.4926 15 20.25 15ZM15 17.25C15 14.3505 17.3505 12 20.25 12C23.1495 12 25.5 14.3505 25.5 17.25C25.5 20.1495 23.1495 22.5 20.25 22.5C17.3505 22.5 15 20.1495 15 17.25Z" fill="#9691A4"/>
<path fill-rule="evenodd" clip-rule="evenodd" d="M1.464 1.38582C2.39231 0.492326 3.63954 0 4.92857 0H22.0714C23.3605 0 24.6077 0.492326 25.536 1.38582C26.4663 2.28119 27 3.50806 27 4.8V8.1C27 8.92843 26.3284 9.6 25.5 9.6C24.6716 9.6 24 8.92843 24 8.1V4.8C24 4.34151 23.8113 3.88965 23.4556 3.54728C23.0979 3.20303 22.601 3 22.0714 3H4.92857C4.39898 3 3.90207 3.20303 3.54441 3.54728C3.1887 3.88965 3 4.34151 3 4.8V14.7C3 15.1585 3.1887 15.6103 3.54441 15.9527C3.90207 16.297 4.39898 16.5 4.92857 16.5H6.85714C7.68557 16.5 8.35714 17.1716 8.35714 18C8.35714 18.8284 7.68557 19.5 6.85714 19.5H4.92857C3.63954 19.5 2.3923 19.0077 1.464 18.1142C0.53375 17.2188 0 15.9919 0 14.7V4.8C0 3.50806 0.53375 2.28119 1.464 1.38582Z" fill="#9691A4"/>
</svg>
