<svg width="33" height="33" viewBox="0 0 33 33" fill="none" xmlns="http://www.w3.org/2000/svg">
<path d="M21.5833 9.58333C21.25 8.75 20.7569 8.09722 20.1042 7.625C19.4514 7.15278 18.6667 6.91667 17.75 6.91667C17.25 6.91667 16.7639 6.98611 16.2917 7.125C15.8194 7.26389 15.3889 7.52778 15 7.91667L12.5833 5.5C12.9722 5.11111 13.5 4.75694 14.1667 4.4375C14.8333 4.11806 15.4444 3.91667 16 3.83333V0.333333H19.3333V3.75C20.5833 4 21.6806 4.50694 22.625 5.27083C23.5694 6.03472 24.2778 7.02778 24.75 8.25L21.5833 9.58333ZM30.6667 33L23 25.3333C22.5833 25.75 22.0139 26.0903 21.2917 26.3542C20.5694 26.6181 19.9167 26.7778 19.3333 26.8333V30.3333H16V26.75C14.4444 26.3611 13.1458 25.6528 12.1042 24.625C11.0625 23.5972 10.3056 22.3056 9.83333 20.75L13.1667 19.4167C13.5 20.5833 14.0625 21.5833 14.8542 22.4167C15.6458 23.25 16.6944 23.6667 18 23.6667C18.5 23.6667 18.9583 23.6042 19.375 23.4792C19.7917 23.3542 20.1944 23.1667 20.5833 22.9167L0 2.33333L2.33333 0L33 30.6667L30.6667 33Z" fill="black"/>
</svg>
