<svg width="44" height="36" viewBox="0 0 44 36" fill="none" xmlns="http://www.w3.org/2000/svg">
<path fill-rule="evenodd" clip-rule="evenodd" d="M14.5714 14C13.0785 14 12 15.1459 12 16.4V29.6C12 30.8541 13.0785 32 14.5714 32H37.4286C38.9215 32 40 30.8541 40 29.6V16.4C40 15.1459 38.9215 14 37.4286 14H14.5714ZM8 16.4C8 12.794 11.0149 10 14.5714 10H37.4286C40.9851 10 44 12.794 44 16.4V29.6C44 33.206 40.9851 36 37.4286 36H14.5714C11.0149 36 8 33.206 8 29.6V16.4Z" fill="#1F1B2D"/>
<path fill-rule="evenodd" clip-rule="evenodd" d="M27 20C25.3431 20 24 21.3431 24 23C24 24.6569 25.3431 26 27 26C28.6569 26 30 24.6569 30 23C30 21.3431 28.6569 20 27 20ZM20 23C20 19.134 23.134 16 27 16C30.866 16 34 19.134 34 23C34 26.866 30.866 30 27 30C23.134 30 20 26.866 20 23Z" fill="#1F1B2D"/>
<path fill-rule="evenodd" clip-rule="evenodd" d="M1.952 1.84776C3.18974 0.656435 4.85272 0 6.57143 0H29.4286C31.1473 0 32.8103 0.656435 34.048 1.84776C35.2883 3.04158 36 4.67741 36 6.4V10.8C36 11.9046 35.1046 12.8 34 12.8C32.8954 12.8 32 11.9046 32 10.8V6.4C32 5.78868 31.7484 5.1862 31.2741 4.7297C30.7972 4.27071 30.1347 4 29.4286 4H6.57143C5.8653 4 5.20276 4.27071 4.72588 4.7297C4.2516 5.1862 4 5.78868 4 6.4V19.6C4 20.2113 4.2516 20.8138 4.72588 21.2703C5.20276 21.7293 5.8653 22 6.57143 22H9.14286C10.2474 22 11.1429 22.8954 11.1429 24C11.1429 25.1046 10.2474 26 9.14286 26H6.57143C4.85272 26 3.18974 25.3436 1.952 24.1522C0.711667 22.9584 0 21.3226 0 19.6V6.4C0 4.67741 0.711667 3.04158 1.952 1.84776Z" fill="#1F1B2D"/>
</svg>
