<svg width="24" height="24" viewBox="0 0 24 24" fill="none" xmlns="http://www.w3.org/2000/svg">
<path fill-rule="evenodd" clip-rule="evenodd" d="M6.00024 5.00012C5.44796 5.00012 5.00024 5.44784 5.00024 6.00012V8.00012C5.00024 8.55241 5.44796 9.00012 6.00024 9.00012H18.0002C18.5525 9.00012 19.0002 8.55241 19.0002 8.00012V6.00012C19.0002 5.44784 18.5525 5.00012 18.0002 5.00012H6.00024ZM3.00024 6.00012C3.00024 4.34327 4.34339 3.00012 6.00024 3.00012H18.0002C19.6571 3.00012 21.0002 4.34327 21.0002 6.00012V8.00012C21.0002 9.65698 19.6571 11.0001 18.0002 11.0001H6.00024C4.34339 11.0001 3.00024 9.65698 3.00024 8.00012V6.00012Z" fill="#1F1B2D"/>
<path fill-rule="evenodd" clip-rule="evenodd" d="M6.00024 14.9998C5.44796 14.9998 5.00024 15.4475 5.00024 15.9998V17.9998C5.00024 18.5521 5.44796 18.9998 6.00024 18.9998H18.0002C18.5525 18.9998 19.0002 18.5521 19.0002 17.9998V15.9998C19.0002 15.4475 18.5525 14.9998 18.0002 14.9998H6.00024ZM3.00024 15.9998C3.00024 14.343 4.34339 12.9998 6.00024 12.9998H18.0002C19.6571 12.9998 21.0002 14.343 21.0002 15.9998V17.9998C21.0002 19.6567 19.6571 20.9998 18.0002 20.9998H6.00024C4.34339 20.9998 3.00024 19.6567 3.00024 17.9998V15.9998Z" fill="#1F1B2D"/>
</svg>
