<svg width="40" height="40" viewBox="0 0 40 40" fill="none" xmlns="http://www.w3.org/2000/svg">
<path d="M26.1616 11.6161C25.7575 10.606 25.1599 9.81479 24.3686 9.2424C23.5774 8.67001 22.6262 8.38382 21.5151 8.38382C20.909 8.38382 20.3198 8.46799 19.7474 8.63634C19.175 8.80469 18.6532 9.12456 18.1818 9.59594L15.2525 6.66665C15.7239 6.19527 16.3636 5.76598 17.1717 5.37877C17.9798 4.99157 18.7205 4.74746 19.3939 4.64645V0.404039H23.4343V4.54544C24.9494 4.84847 26.2794 5.46295 27.4242 6.38887C28.569 7.3148 29.4275 8.5185 29.9999 9.99998L26.1616 11.6161ZM37.1716 39.9999L27.8787 30.707C27.3737 31.212 26.6834 31.6245 25.808 31.9444C24.9326 32.2642 24.1414 32.4578 23.4343 32.5252V36.7676H19.3939V32.4242C17.5084 31.9528 15.9343 31.0942 14.6717 29.8484C13.4091 28.6026 12.4916 27.037 11.9192 25.1515L15.9596 23.5353C16.3636 24.9494 17.0454 26.1616 18.005 27.1717C18.9646 28.1818 20.2356 28.6868 21.8181 28.6868C22.4242 28.6868 22.9797 28.611 23.4848 28.4595C23.9898 28.308 24.4781 28.0807 24.9494 27.7777L0 2.82828L2.82828 0L39.9999 37.1716L37.1716 39.9999Z" fill="#1F1B2D"/>
</svg>
