<svg width="19" height="36" viewBox="0 0 19 36" fill="none" xmlns="http://www.w3.org/2000/svg">
<path d="M7.4 36V31.7C5.63333 31.3 4.10833 30.5333 2.825 29.4C1.54167 28.2667 0.6 26.6667 0 24.6L3.7 23.1C4.2 24.7 4.94167 25.9167 5.925 26.75C6.90833 27.5833 8.2 28 9.8 28C11.1667 28 12.325 27.6917 13.275 27.075C14.225 26.4583 14.7 25.5 14.7 24.2C14.7 23.0333 14.3333 22.1083 13.6 21.425C12.8667 20.7417 11.1667 19.9667 8.5 19.1C5.63333 18.2 3.66667 17.125 2.6 15.875C1.53333 14.625 1 13.1 1 11.3C1 9.13333 1.7 7.45 3.1 6.25C4.5 5.05 5.93333 4.36667 7.4 4.2V0H11.4V4.2C13.0667 4.46667 14.4417 5.075 15.525 6.025C16.6083 6.975 17.4 8.13333 17.9 9.5L14.2 11.1C13.8 10.0333 13.2333 9.23333 12.5 8.7C11.7667 8.16667 10.7667 7.9 9.5 7.9C8.03333 7.9 6.91667 8.225 6.15 8.875C5.38333 9.525 5 10.3333 5 11.3C5 12.4 5.5 13.2667 6.5 13.9C7.5 14.5333 9.23333 15.2 11.7 15.9C14 16.5667 15.7417 17.625 16.925 19.075C18.1083 20.525 18.7 22.2 18.7 24.1C18.7 26.4667 18 28.2667 16.6 29.5C15.2 30.7333 13.4667 31.5 11.4 31.8V36H7.4Z" fill="#1F1B2D"/>
</svg>
