<svg width="24" height="24" viewBox="0 0 24 24" fill="none" xmlns="http://www.w3.org/2000/svg">
<path d="M19.1818 8.225C19.4523 8.225 19.679 8.13396 19.8619 7.95188C20.0449 7.76979 20.1364 7.54417 20.1364 7.275C20.1364 7.00583 20.0449 6.78021 19.8619 6.59812C19.679 6.41604 19.4523 6.325 19.1818 6.325C18.9114 6.325 18.6847 6.41604 18.5017 6.59812C18.3188 6.78021 18.2273 7.00583 18.2273 7.275C18.2273 7.54417 18.3188 7.76979 18.5017 7.95188C18.6847 8.13396 18.9114 8.225 19.1818 8.225ZM15.3636 8.225C15.6341 8.225 15.8608 8.13396 16.0438 7.95188C16.2267 7.76979 16.3182 7.54417 16.3182 7.275C16.3182 7.00583 16.2267 6.78021 16.0438 6.59812C15.8608 6.41604 15.6341 6.325 15.3636 6.325C15.0932 6.325 14.8665 6.41604 14.6835 6.59812C14.5006 6.78021 14.4091 7.00583 14.4091 7.275C14.4091 7.54417 14.5006 7.76979 14.6835 7.95188C14.8665 8.13396 15.0932 8.225 15.3636 8.225ZM14.8864 11.455H19.6591C19.6591 10.9008 19.4165 10.4615 18.9313 10.1369C18.446 9.81229 17.8932 9.65 17.2727 9.65C16.6523 9.65 16.0994 9.81229 15.6142 10.1369C15.129 10.4615 14.8864 10.9008 14.8864 11.455ZM7.72727 22C6.13636 22 4.78409 21.4458 3.67045 20.3375C2.55682 19.2292 2 17.8833 2 16.3V9.65H13.4545V16.3C13.4545 17.8833 12.8977 19.2292 11.7841 20.3375C10.6705 21.4458 9.31818 22 7.72727 22ZM7.72727 20.1C8.77727 20.1 9.67614 19.7279 10.4239 18.9838C11.1716 18.2396 11.5455 17.345 11.5455 16.3V11.55H3.90909V16.3C3.90909 17.345 4.28295 18.2396 5.03068 18.9838C5.77841 19.7279 6.67727 20.1 7.72727 20.1ZM17.2727 15.35C16.8591 15.35 16.4494 15.3065 16.0438 15.2194C15.6381 15.1323 15.2523 15.0017 14.8864 14.8275V12.595C15.2364 12.8642 15.6142 13.074 16.0199 13.2244C16.4256 13.3748 16.8432 13.45 17.2727 13.45C18.3227 13.45 19.2216 13.0779 19.9693 12.3337C20.717 11.5896 21.0909 10.695 21.0909 9.65V4.9H13.4545V8.225H11.5455V3H23V9.65C23 11.2333 22.4432 12.5792 21.3295 13.6875C20.2159 14.7958 18.8636 15.35 17.2727 15.35ZM5.81818 14.875C6.08864 14.875 6.31534 14.784 6.4983 14.6019C6.68125 14.4198 6.77273 14.1942 6.77273 13.925C6.77273 13.6558 6.68125 13.4302 6.4983 13.2481C6.31534 13.066 6.08864 12.975 5.81818 12.975C5.54773 12.975 5.32102 13.066 5.13807 13.2481C4.95511 13.4302 4.86364 13.6558 4.86364 13.925C4.86364 14.1942 4.95511 14.4198 5.13807 14.6019C5.32102 14.784 5.54773 14.875 5.81818 14.875ZM9.63636 14.875C9.90682 14.875 10.1335 14.784 10.3165 14.6019C10.4994 14.4198 10.5909 14.1942 10.5909 13.925C10.5909 13.6558 10.4994 13.4302 10.3165 13.2481C10.1335 13.066 9.90682 12.975 9.63636 12.975C9.36591 12.975 9.1392 13.066 8.95625 13.2481C8.7733 13.4302 8.68182 13.6558 8.68182 13.925C8.68182 14.1942 8.7733 14.4198 8.95625 14.6019C9.1392 14.784 9.36591 14.875 9.63636 14.875ZM7.72727 18.105C8.34773 18.105 8.90057 17.9427 9.3858 17.6181C9.87102 17.2935 10.1136 16.8542 10.1136 16.3H5.34091C5.34091 16.8542 5.58352 17.2935 6.06875 17.6181C6.55398 17.9427 7.10682 18.105 7.72727 18.105Z" fill="#1F1B2D"/>
</svg>
