<svg data-v-fde0c5aa="" xmlns="http://www.w3.org/2000/svg" viewBox="0 0 300 300" class="iconLeftSlogan"><!----><defs data-v-fde0c5aa=""><!----></defs><rect data-v-fde0c5aa="" fill="#FFFFFF" x="0" y="0" width="300px" height="300px" class="logo-background-square"></rect><defs data-v-fde0c5aa=""><!----></defs><g data-v-fde0c5aa="" id="99383254-a66d-4359-9045-2d2d1c490ad0" fill="#334155 " transform="matrix(1.5788992881383213,0,0,1.5788992881383213,95.63658265551089,128.67929217180722)"><path d="M6.45 5.87L6.45 7.21L4.20 7.21L4.20 9.51L2.80 9.51L2.80 7.21L0.56 7.21L0.56 5.87L2.80 5.87L2.80 3.58L4.20 3.58L4.20 5.87L6.45 5.87ZM15.30 4.58Q16.02 3.74 17.50 3.74Q18.98 3.74 19.70 4.58Q20.41 5.43 20.41 7.20Q20.41 8.96 19.70 9.82Q18.98 10.68 17.50 10.68Q16.02 10.68 15.30 9.82Q14.59 8.96 14.59 7.20Q14.59 5.43 15.30 4.58ZM16.43 5.59Q16.14 6.08 16.14 7.20Q16.14 8.32 16.44 8.82Q16.73 9.32 17.50 9.32Q18.27 9.32 18.56 8.82Q18.86 8.32 18.86 7.20Q18.86 6.08 18.57 5.59Q18.28 5.10 17.50 5.10Q16.72 5.10 16.43 5.59ZM23.24 13.19L21.80 13.19L21.80 5.05L21.71 3.85L23.11 3.75L23.20 4.37Q24.14 3.74 24.86 3.74L24.86 3.74Q26.28 3.74 26.94 4.57Q27.61 5.40 27.61 7.17Q27.61 8.93 26.80 9.79Q25.98 10.65 24.49 10.65L24.49 10.65Q23.98 10.65 23.24 10.36L23.24 10.36L23.24 13.19ZM24.81 5.08L24.81 5.08Q24.16 5.08 23.24 5.70L23.24 5.70L23.24 9.03Q23.91 9.32 24.46 9.32L24.46 9.32Q26.05 9.32 26.05 7.20Q26.05 5.07 24.81 5.08ZM29.30 4.58Q30.02 3.74 31.50 3.74Q32.98 3.74 33.70 4.58Q34.41 5.43 34.41 7.20Q34.41 8.96 33.70 9.82Q32.98 10.68 31.50 10.68Q30.02 10.68 29.30 9.82Q28.59 8.96 28.59 7.20Q28.59 5.43 29.30 4.58ZM30.43 5.59Q30.14 6.08 30.14 7.20Q30.14 8.32 30.44 8.82Q30.73 9.32 31.50 9.32Q32.27 9.32 32.56 8.82Q32.86 8.32 32.86 7.20Q32.86 6.08 32.57 5.59Q32.28 5.10 31.50 5.10Q30.72 5.10 30.43 5.59ZM37.21 5.14L36.13 5.14L36.13 3.85L38.65 3.85L38.68 4.52Q39.13 4.27 39.85 4.04Q40.57 3.81 41.19 3.74L41.19 3.74L41.19 5.14Q40.64 5.19 39.89 5.43Q39.13 5.67 38.68 5.92L38.68 5.92L38.68 9.24L40.73 9.24L40.73 10.50L36.13 10.50L36.13 9.21L37.21 9.21L37.21 5.14ZM43.96 7.95L43.96 5.14L42.90 5.14L42.90 3.85L43.96 3.85L43.96 2.25L45.40 2.11L45.40 3.85L47.89 3.85L47.89 5.14L45.40 5.14L45.40 7.95Q45.40 8.72 45.56 9.03L45.56 9.03Q45.72 9.34 46.28 9.34Q46.84 9.34 47.77 9.11L47.77 9.11L48.01 10.37Q46.94 10.65 46.19 10.65L46.19 10.65Q44.84 10.65 44.40 10.05Q43.96 9.45 43.96 7.95L43.96 7.95ZM55.16 10.50L53.76 10.50L53.73 10.01Q52.61 10.64 51.91 10.64L51.91 10.64Q50.78 10.64 50.26 9.99Q49.74 9.34 49.74 7.91L49.74 7.91L49.74 3.85L51.18 3.85L51.18 7.83Q51.18 9.27 52.12 9.27L52.12 9.27Q52.86 9.27 53.72 8.69L53.72 8.69L53.72 3.85L55.16 3.85L55.16 10.50ZM56.78 3.85L58.18 3.85L58.21 4.26Q59.35 3.74 59.99 3.74L59.99 3.74Q61.12 3.74 61.66 4.40Q62.20 5.07 62.20 6.48L62.20 6.48L62.20 10.50L60.76 10.50L60.76 6.52Q60.76 5.85 60.52 5.47Q60.28 5.10 59.78 5.10Q59.28 5.10 58.23 5.59L58.23 5.59L58.23 10.50L56.78 10.50L56.78 3.85ZM66.00 5.17L64.44 5.17L64.44 3.88L67.44 3.88L67.44 9.21L68.99 9.21L68.99 10.50L64.33 10.50L64.33 9.21L66.00 9.21L66.00 5.17ZM66.04 2.65Q65.77 2.38 65.77 2.02Q65.77 1.65 66.02 1.40L66.02 1.40Q66.28 1.15 66.64 1.15Q67.00 1.15 67.26 1.39Q67.51 1.64 67.51 2.02Q67.51 2.39 67.26 2.66Q67.00 2.93 66.65 2.93Q66.30 2.93 66.04 2.65ZM74.96 1.16L76.38 1.16L76.38 9.34L76.52 10.50L75.11 10.64L74.98 10.00Q74.07 10.65 73.21 10.65L73.21 10.65Q71.90 10.65 71.25 9.89Q70.59 9.13 70.59 7.31Q70.59 5.49 71.39 4.61Q72.18 3.74 73.46 3.74L73.46 3.74Q74.20 3.74 74.96 4.06L74.96 4.06L74.96 1.16ZM73.30 9.31L73.30 9.31Q74.05 9.31 74.96 8.55L74.96 8.55L74.96 5.43Q74.23 5.08 73.53 5.08L73.53 5.08Q72.14 5.08 72.14 7.31L72.14 7.31Q72.14 9.31 73.30 9.31ZM80.02 9.30L80.02 9.30Q80.42 9.30 80.89 9.11Q81.37 8.93 81.65 8.71L81.65 8.71L81.65 7.73Q80.81 7.66 80.28 7.66L80.28 7.66Q79.11 7.66 79.11 8.53L79.11 8.53Q79.11 9.30 80.02 9.30ZM79.80 10.65L79.80 10.65Q77.56 10.65 77.56 8.53L77.56 8.53Q77.56 7.39 78.28 6.94Q79.00 6.48 80.28 6.48L80.28 6.48Q80.88 6.48 81.65 6.55L81.65 6.55Q81.65 5.71 81.41 5.40Q81.17 5.10 80.58 5.10Q80.00 5.10 79.21 5.24Q78.43 5.38 78.01 5.52L78.01 5.52L77.74 4.19Q79.21 3.74 80.61 3.74Q82.01 3.74 82.55 4.35Q83.09 4.97 83.09 6.44L83.09 6.44L83.09 9.28L83.24 10.51L81.80 10.65L81.66 10.01Q80.49 10.65 79.80 10.65ZM88.96 1.16L90.38 1.16L90.38 9.34L90.52 10.50L89.11 10.64L88.98 10.00Q88.07 10.65 87.21 10.65L87.21 10.65Q85.90 10.65 85.25 9.89Q84.59 9.13 84.59 7.31Q84.59 5.49 85.39 4.61Q86.18 3.74 87.46 3.74L87.46 3.74Q88.20 3.74 88.96 4.06L88.96 4.06L88.96 1.16ZM87.30 9.31L87.30 9.31Q88.05 9.31 88.96 8.55L88.96 8.55L88.96 5.43Q88.23 5.08 87.53 5.08L87.53 5.08Q86.14 5.08 86.14 7.31L86.14 7.31Q86.14 9.31 87.30 9.31ZM91.69 7.18Q91.69 5.49 92.44 4.61Q93.20 3.74 94.54 3.74Q95.89 3.74 96.62 4.53Q97.36 5.32 97.38 6.85L97.38 6.85L97.33 7.88L93.24 7.88Q93.37 9.39 94.75 9.39L94.75 9.39Q95.72 9.39 96.80 9.04L96.80 9.04L97.09 10.26Q96.64 10.42 95.93 10.54Q95.21 10.65 94.75 10.65L94.75 10.65Q91.69 10.65 91.69 7.18L91.69 7.18ZM94.60 5.04L94.60 5.04Q93.94 5.04 93.61 5.42Q93.28 5.81 93.24 6.71L93.24 6.71L95.83 6.71Q95.83 5.04 94.60 5.04ZM98.88 10.19L98.88 10.19L99.19 8.92Q100.52 9.34 101.30 9.34Q102.09 9.34 102.37 9.18L102.37 9.18Q102.65 9.04 102.65 8.68Q102.65 8.32 102.40 8.16Q102.14 8.01 101.44 7.84L101.44 7.84Q100.06 7.50 99.51 7.09Q98.97 6.68 98.97 5.74L98.97 5.74Q98.97 3.74 101.54 3.74L101.54 3.74Q102.65 3.74 104.10 4.10L104.10 4.10L103.84 5.43Q102.45 5.04 101.70 5.04Q100.94 5.04 100.68 5.17Q100.42 5.31 100.42 5.63Q100.42 5.95 100.68 6.10Q100.94 6.24 102.02 6.54Q103.10 6.83 103.60 7.22Q104.10 7.60 104.10 8.53L104.10 8.53Q104.10 10.64 101.50 10.64L101.50 10.64Q100.28 10.64 98.88 10.19Z"></path></g><defs data-v-fde0c5aa=""><!----></defs><g data-v-fde0c5aa="" id="b9976e0c-46cf-4a1e-b570-e44825944ea2" stroke="none" fill="#6366F1" transform="matrix(0.34000598641119323,0,0,0.34000598641119323,40,128.23961686968363)"><path d="M64 0C28.689 0 0 28.689 0 64s28.689 64 64 64 64-28.689 64-64S99.311 0 64 0zm0 6c32.068 0 58 25.932 58 58s-25.932 58-58 58S6 96.068 6 64 31.932 6 64 6zm0 20c-20.951 0-38 17.049-38 38s17.049 38 38 38 38-17.049 38-38-17.049-38-38-38zm0 6c17.709 0 32 14.291 32 32S81.709 96 64 96 32 81.709 32 64s14.291-32 32-32zm0 20c-6.627 0-12 5.373-12 12s5.373 12 12 12 12-5.373 12-12-5.373-12-12-12z"></path></g><defs data-v-fde0c5aa=""><!----></defs><g data-v-fde0c5aa="" id="48f5aa3b-24b2-4367-a348-86b3f1f12168" fill="#737373" transform="matrix(0.880103546376136,0,0,0.880103546376136,96.06311243330379,156.91746920777183)"><path d="M0.52 3.51C0.52 3.75 0.56 3.79 0.77 3.79L1.69 3.77C1.75 3.77 1.75 4.47 1.75 5.24L1.75 5.96C1.75 7.70 1.74 12.18 1.62 12.18L0.95 12.18C0.73 12.18 0.66 12.19 0.66 12.39C0.66 12.63 0.67 12.68 0.87 12.68C0.99 12.68 1.97 12.64 2.39 12.64C2.81 12.64 3.68 12.68 4.00 12.68C4.17 12.68 4.20 12.61 4.20 12.40C4.20 12.24 4.17 12.18 4.00 12.18L3.01 12.18C2.97 12.18 2.95 10.60 2.95 9.58L2.95 8.65C2.95 8.57 2.95 8.54 3.05 8.54C3.44 8.54 3.77 8.58 4.27 8.58C6.26 8.58 7.66 7.83 7.66 6.01C7.66 4.09 6.17 3.22 4.26 3.22C3.93 3.22 2.84 3.29 2.42 3.29C2.18 3.29 0.99 3.26 0.77 3.26C0.59 3.26 0.52 3.28 0.52 3.51ZM2.97 8.05L2.97 4.40C2.97 4.05 2.98 3.70 3.02 3.68C3.15 3.67 3.32 3.67 3.46 3.67C5.11 3.67 6.37 4.47 6.37 5.80C6.37 7.57 5.04 8.19 3.46 8.19C3.21 8.19 2.97 8.16 2.97 8.05ZM14.15 12.39C14.15 12.63 14.15 12.68 14.35 12.68C14.52 12.68 14.84 12.64 15.41 12.64C16.03 12.64 16.58 12.68 16.73 12.68C16.90 12.68 16.90 12.61 16.90 12.40C16.90 12.24 16.90 12.18 16.73 12.18L15.65 12.18C15.65 12.18 15.64 12.18 15.64 12.17C15.65 11.87 16.42 9.90 16.77 9.02C16.84 8.83 16.86 8.79 17.07 8.79L19.89 8.79C20.03 8.79 20.03 8.81 20.10 9.03C20.37 9.77 21.08 11.89 21.08 12.17C21.08 12.18 21.07 12.18 21.07 12.18L20.30 12.18C20.08 12.18 20.06 12.19 20.06 12.39C20.06 12.63 20.08 12.68 20.24 12.68C20.57 12.68 21.43 12.64 21.85 12.64C22.27 12.64 22.95 12.68 23.16 12.68C23.30 12.68 23.31 12.61 23.31 12.40C23.31 12.24 23.30 12.18 23.16 12.18L22.67 12.18C22.57 12.18 21.55 9.34 20.99 7.78L19.31 3.07C19.29 3.00 19.22 2.94 19.14 2.94C19.01 2.94 18.91 3.16 18.83 3.35C18.68 3.71 18.44 3.84 18.33 4.13L16.84 7.57C16.66 8.01 14.95 12.18 14.83 12.18L14.41 12.18C14.18 12.18 14.15 12.19 14.15 12.39ZM17.05 8.33C17.05 8.30 17.08 8.23 17.12 8.13L18.49 4.77C18.54 4.66 18.56 4.61 18.59 4.61C18.61 4.61 18.62 4.63 18.66 4.77L19.82 8.18C19.85 8.25 19.87 8.29 19.87 8.32C19.87 8.36 19.84 8.37 19.74 8.37L17.23 8.37C17.05 8.37 17.05 8.34 17.05 8.33ZM31.07 3.51C31.07 3.72 31.14 3.79 31.33 3.79L32.14 3.77C32.24 3.77 32.28 6.61 32.28 8.55L32.28 10.42C32.28 11.30 32.27 12.18 32.23 12.18L31.63 12.18C31.40 12.18 31.33 12.19 31.33 12.39C31.33 12.63 31.37 12.68 31.57 12.68C31.70 12.68 32.52 12.64 32.94 12.64C33.36 12.64 34.13 12.68 34.45 12.68C34.62 12.68 34.65 12.61 34.65 12.40C34.65 12.24 34.62 12.18 34.45 12.18L33.64 12.18C33.57 12.18 33.49 9.18 33.49 8.37C33.49 8.30 33.49 8.26 33.60 8.26C33.99 8.26 34.59 8.27 34.89 8.27C37.13 8.32 37.27 10.00 37.27 11.68L37.27 12.49C37.27 12.61 37.32 12.64 37.42 12.64C37.42 12.64 38.86 12.68 39.34 12.68C39.51 12.68 39.56 12.64 39.56 12.53C39.56 12.24 39.51 12.18 39.35 12.18L38.71 12.18C38.61 12.18 38.58 12.14 38.56 11.31C38.47 8.99 37.10 8.34 36.19 8.05C36.05 8.01 36.08 8.01 36.19 7.95C36.78 7.69 38.09 6.94 38.09 5.63C38.09 3.63 36.40 3.21 35 3.21C34.68 3.21 33.39 3.29 32.97 3.29C32.55 3.29 31.57 3.26 31.35 3.26C31.16 3.26 31.07 3.28 31.07 3.51ZM33.49 7.80L33.49 4.40C33.49 4.05 33.52 3.68 33.56 3.68C33.77 3.65 34.05 3.65 34.27 3.65C35.57 3.65 36.82 4.47 36.82 5.82C36.82 6.99 36.27 7.57 35.62 7.88C35.57 7.90 35.53 7.90 35.46 7.90C34.99 7.88 34.27 7.88 33.67 7.87C33.50 7.87 33.49 7.85 33.49 7.80ZM46.90 12.39C46.90 12.63 46.90 12.68 47.10 12.68C47.26 12.68 47.59 12.64 48.16 12.64C48.78 12.64 49.32 12.68 49.48 12.68C49.64 12.68 49.64 12.61 49.64 12.40C49.64 12.24 49.64 12.18 49.48 12.18L48.40 12.18C48.40 12.18 48.38 12.18 48.38 12.17C48.40 11.87 49.17 9.90 49.52 9.02C49.59 8.83 49.60 8.79 49.81 8.79L52.64 8.79C52.78 8.79 52.78 8.81 52.85 9.03C53.12 9.77 53.83 11.89 53.83 12.17C53.83 12.18 53.82 12.18 53.82 12.18L53.05 12.18C52.82 12.18 52.81 12.19 52.81 12.39C52.81 12.63 52.82 12.68 52.99 12.68C53.31 12.68 54.18 12.64 54.60 12.64C55.02 12.64 55.69 12.68 55.90 12.68C56.04 12.68 56.06 12.61 56.06 12.40C56.06 12.24 56.04 12.18 55.90 12.18L55.41 12.18C55.31 12.18 54.29 9.34 53.73 7.78L52.05 3.07C52.04 3.00 51.97 2.94 51.88 2.94C51.76 2.94 51.66 3.16 51.58 3.35C51.42 3.71 51.18 3.84 51.07 4.13L49.59 7.57C49.41 8.01 47.70 12.18 47.57 12.18L47.15 12.18C46.93 12.18 46.90 12.19 46.90 12.39ZM49.80 8.33C49.80 8.30 49.83 8.23 49.87 8.13L51.24 4.77C51.28 4.66 51.31 4.61 51.34 4.61C51.35 4.61 51.37 4.63 51.41 4.77L52.57 8.18C52.60 8.25 52.61 8.29 52.61 8.32C52.61 8.36 52.58 8.37 52.49 8.37L49.98 8.37C49.80 8.37 49.80 8.34 49.80 8.33ZM73.47 12.39C73.47 12.63 73.47 12.68 73.67 12.68C73.84 12.68 74.16 12.64 74.73 12.64C75.35 12.64 75.89 12.68 76.05 12.68C76.22 12.68 76.22 12.61 76.22 12.40C76.22 12.24 76.22 12.18 76.05 12.18L74.97 12.18C74.97 12.18 74.96 12.18 74.96 12.17C74.97 11.87 75.74 9.90 76.09 9.02C76.16 8.83 76.17 8.79 76.38 8.79L79.21 8.79C79.35 8.79 79.35 8.81 79.42 9.03C79.69 9.77 80.40 11.89 80.40 12.17C80.40 12.18 80.39 12.18 80.39 12.18L79.62 12.18C79.39 12.18 79.38 12.19 79.38 12.39C79.38 12.63 79.39 12.68 79.56 12.68C79.88 12.68 80.75 12.64 81.17 12.64C81.59 12.64 82.26 12.68 82.47 12.68C82.61 12.68 82.63 12.61 82.63 12.40C82.63 12.24 82.61 12.18 82.47 12.18L81.98 12.18C81.89 12.18 80.86 9.34 80.30 7.78L78.62 3.07C78.61 3.00 78.54 2.94 78.46 2.94C78.33 2.94 78.23 3.16 78.15 3.35C77.99 3.71 77.76 3.84 77.64 4.13L76.16 7.57C75.98 8.01 74.27 12.18 74.14 12.18L73.72 12.18C73.50 12.18 73.47 12.19 73.47 12.39ZM76.37 8.33C76.37 8.30 76.40 8.23 76.44 8.13L77.81 4.77C77.85 4.66 77.88 4.61 77.91 4.61C77.92 4.61 77.94 4.63 77.98 4.77L79.14 8.18C79.17 8.25 79.18 8.29 79.18 8.32C79.18 8.36 79.16 8.37 79.06 8.37L76.55 8.37C76.37 8.37 76.37 8.34 76.37 8.33ZM90.38 3.51C90.38 3.72 90.45 3.79 90.65 3.79L91.46 3.77C91.56 3.77 91.60 6.61 91.60 8.55L91.60 10.42C91.60 11.30 91.59 12.18 91.55 12.18L90.94 12.18C90.72 12.18 90.65 12.19 90.65 12.39C90.65 12.63 90.69 12.68 90.89 12.68C91.01 12.68 91.84 12.64 92.26 12.64C92.68 12.64 93.45 12.68 93.77 12.68C93.94 12.68 93.97 12.61 93.97 12.40C93.97 12.24 93.94 12.18 93.77 12.18L92.96 12.18C92.89 12.18 92.81 9.18 92.81 8.37C92.81 8.30 92.81 8.26 92.92 8.26C93.31 8.26 93.91 8.27 94.21 8.27C96.45 8.32 96.59 10.00 96.59 11.68L96.59 12.49C96.59 12.61 96.64 12.64 96.74 12.64C96.74 12.64 98.18 12.68 98.66 12.68C98.83 12.68 98.88 12.64 98.88 12.53C98.88 12.24 98.83 12.18 98.67 12.18L98.03 12.18C97.93 12.18 97.90 12.14 97.87 11.31C97.79 8.99 96.42 8.34 95.51 8.05C95.37 8.01 95.40 8.01 95.51 7.95C96.10 7.69 97.41 6.94 97.41 5.63C97.41 3.63 95.72 3.21 94.32 3.21C94.00 3.21 92.71 3.29 92.29 3.29C91.87 3.29 90.89 3.26 90.66 3.26C90.48 3.26 90.38 3.28 90.38 3.51ZM92.81 7.80L92.81 4.40C92.81 4.05 92.83 3.68 92.88 3.68C93.09 3.65 93.37 3.65 93.59 3.65C94.89 3.65 96.14 4.47 96.14 5.82C96.14 6.99 95.59 7.57 94.93 7.88C94.89 7.90 94.85 7.90 94.78 7.90C94.30 7.88 93.59 7.88 92.99 7.87C92.82 7.87 92.81 7.85 92.81 7.80ZM105.39 5.01C105.39 5.17 105.57 5.17 105.70 5.17C105.85 5.17 105.90 5.15 105.91 4.97L106.02 3.89C106.04 3.81 106.58 3.75 107.34 3.75L109.33 3.75C109.38 3.75 109.41 4.35 109.41 4.97C109.41 6.43 109.35 12.18 109.23 12.18L108.36 12.18C108.14 12.18 108.09 12.19 108.09 12.39C108.09 12.63 108.11 12.68 108.30 12.68C108.63 12.68 109.61 12.64 110.03 12.64C110.45 12.64 111.38 12.68 111.71 12.68C111.87 12.68 111.90 12.61 111.90 12.40C111.90 12.24 111.87 12.18 111.71 12.18L110.71 12.18C110.68 12.18 110.68 11.76 110.68 11.31C110.68 9.56 110.77 5.96 110.77 5.92C110.78 5.18 110.78 3.75 110.88 3.75L112.49 3.75C113.20 3.75 114.03 3.78 114.03 3.85C114.03 3.99 113.99 4.90 113.99 4.97C113.99 5.12 114.06 5.17 114.24 5.17C114.44 5.17 114.51 5.17 114.51 5.03C114.51 3.93 114.56 3.40 114.56 3.14C114.56 2.94 114.48 2.94 114.28 2.94C114.13 2.94 114.07 2.98 114.06 3.16C114.06 3.23 113.41 3.28 112.57 3.28L107.58 3.28C106.92 3.28 106.11 3.28 106.11 3.21L106.11 3.07C106.11 2.94 105.98 2.94 105.88 2.94C105.66 2.94 105.63 3.00 105.62 3.19C105.56 3.89 105.39 4.97 105.39 5.01ZM122.18 12.39C122.18 12.63 122.22 12.68 122.42 12.68C122.74 12.68 123.49 12.64 124.21 12.64C124.87 12.64 125.66 12.68 125.89 12.68C126.06 12.68 126.08 12.61 126.08 12.40C126.08 12.24 126.06 12.18 125.89 12.18L124.92 12.18C124.82 12.18 124.80 9.55 124.80 7.76L124.80 5.87C124.80 5.14 124.82 3.70 124.92 3.70L125.83 3.70C126.06 3.70 126.08 3.68 126.08 3.49C126.08 3.25 126.06 3.19 125.89 3.19C125.57 3.19 124.89 3.23 124.24 3.23C123.42 3.23 122.71 3.19 122.49 3.19C122.30 3.19 122.23 3.21 122.23 3.44C122.23 3.68 122.32 3.70 122.49 3.70L123.41 3.70C123.45 3.70 123.52 4.79 123.52 5.71L123.52 7.08C123.52 8.92 123.51 12.18 123.40 12.18L122.47 12.18C122.25 12.18 122.18 12.19 122.18 12.39ZM134.19 5.77C134.19 9.07 139.17 8.20 139.17 10.65C139.17 11.59 138.33 12.31 137.35 12.31C136.53 12.31 134.93 11.83 134.90 11.47L134.82 10.15C134.81 9.97 134.74 9.91 134.55 9.91L134.48 9.91C134.27 9.91 134.27 10.00 134.27 10.12C134.27 10.32 134.39 11.66 134.41 12.17C134.43 12.38 135.69 12.85 137.23 12.85C138.80 12.85 140.41 11.87 140.41 10.11C140.41 6.79 135.44 7.87 135.44 5.32C135.44 4.31 136.22 3.56 137.26 3.56C138.28 3.56 139.37 4.58 139.37 4.89C139.37 5.01 139.33 5.73 139.33 5.78C139.33 5.92 139.37 5.99 139.64 5.99C139.87 5.99 139.89 5.94 139.89 5.75C139.89 5.04 139.97 3.68 139.97 3.53C139.97 3.30 139.93 3.29 139.66 3.29C139.44 3.29 139.43 3.32 139.41 3.53C139.41 3.61 139.40 3.78 139.36 3.78C139.30 3.78 139.22 3.74 139.15 3.68C138.35 3.14 137.73 3.08 137.23 3.08C135.70 3.08 134.19 4.17 134.19 5.77ZM147.97 5.01C147.97 5.17 148.15 5.17 148.27 5.17C148.43 5.17 148.47 5.15 148.48 4.97L148.60 3.89C148.61 3.81 149.16 3.75 149.91 3.75L151.90 3.75C151.96 3.75 151.98 4.35 151.98 4.97C151.98 6.43 151.93 12.18 151.80 12.18L150.93 12.18C150.71 12.18 150.67 12.19 150.67 12.39C150.67 12.63 150.68 12.68 150.88 12.68C151.20 12.68 152.18 12.64 152.60 12.64C153.02 12.64 153.96 12.68 154.28 12.68C154.45 12.68 154.48 12.61 154.48 12.40C154.48 12.24 154.45 12.18 154.28 12.18L153.29 12.18C153.26 12.18 153.26 11.76 153.26 11.31C153.26 9.56 153.34 5.96 153.34 5.92C153.36 5.18 153.36 3.75 153.45 3.75L155.06 3.75C155.78 3.75 156.60 3.78 156.60 3.85C156.60 3.99 156.56 4.90 156.56 4.97C156.56 5.12 156.63 5.17 156.81 5.17C157.01 5.17 157.08 5.17 157.08 5.03C157.08 3.93 157.14 3.40 157.14 3.14C157.14 2.94 157.05 2.94 156.86 2.94C156.70 2.94 156.65 2.98 156.63 3.16C156.63 3.23 155.99 3.28 155.15 3.28L150.15 3.28C149.49 3.28 148.68 3.28 148.68 3.21L148.68 3.07C148.68 2.94 148.55 2.94 148.46 2.94C148.23 2.94 148.20 3.00 148.19 3.19C148.13 3.89 147.97 4.97 147.97 5.01ZM162.93 12.39C162.93 12.63 162.93 12.68 163.13 12.68C163.30 12.68 163.62 12.64 164.19 12.64C164.81 12.64 165.35 12.68 165.51 12.68C165.68 12.68 165.68 12.61 165.68 12.40C165.68 12.24 165.68 12.18 165.51 12.18L164.43 12.18C164.43 12.18 164.42 12.18 164.42 12.17C164.43 11.87 165.20 9.90 165.55 9.02C165.62 8.83 165.63 8.79 165.84 8.79L168.67 8.79C168.81 8.79 168.81 8.81 168.88 9.03C169.15 9.77 169.86 11.89 169.86 12.17C169.86 12.18 169.85 12.18 169.85 12.18L169.08 12.18C168.85 12.18 168.84 12.19 168.84 12.39C168.84 12.63 168.85 12.68 169.02 12.68C169.34 12.68 170.21 12.64 170.63 12.64C171.05 12.64 171.72 12.68 171.93 12.68C172.07 12.68 172.09 12.61 172.09 12.40C172.09 12.24 172.07 12.18 171.93 12.18L171.44 12.18C171.35 12.18 170.32 9.34 169.76 7.78L168.08 3.07C168.07 3.00 168.00 2.94 167.92 2.94C167.79 2.94 167.69 3.16 167.61 3.35C167.45 3.71 167.22 3.84 167.10 4.13L165.62 7.57C165.44 8.01 163.73 12.18 163.60 12.18L163.18 12.18C162.96 12.18 162.93 12.19 162.93 12.39ZM165.83 8.33C165.83 8.30 165.86 8.23 165.90 8.13L167.27 4.77C167.31 4.66 167.34 4.61 167.37 4.61C167.38 4.61 167.40 4.63 167.44 4.77L168.60 8.18C168.63 8.25 168.64 8.29 168.64 8.32C168.64 8.36 168.62 8.37 168.52 8.37L166.01 8.37C165.83 8.37 165.83 8.34 165.83 8.33ZM180.05 5.77C180.05 9.07 185.04 8.20 185.04 10.65C185.04 11.59 184.20 12.31 183.22 12.31C182.39 12.31 180.80 11.83 180.77 11.47L180.68 10.15C180.67 9.97 180.60 9.91 180.42 9.91L180.35 9.91C180.14 9.91 180.14 10.00 180.14 10.12C180.14 10.32 180.25 11.66 180.28 12.17C180.29 12.38 181.55 12.85 183.09 12.85C184.66 12.85 186.27 11.87 186.27 10.11C186.27 6.79 181.30 7.87 181.30 5.32C181.30 4.31 182.08 3.56 183.12 3.56C184.14 3.56 185.23 4.58 185.23 4.89C185.23 5.01 185.19 5.73 185.19 5.78C185.19 5.92 185.23 5.99 185.50 5.99C185.74 5.99 185.75 5.94 185.75 5.75C185.75 5.04 185.84 3.68 185.84 3.53C185.84 3.30 185.79 3.29 185.53 3.29C185.30 3.29 185.29 3.32 185.28 3.53C185.28 3.61 185.26 3.78 185.22 3.78C185.16 3.78 185.08 3.74 185.01 3.68C184.21 3.14 183.60 3.08 183.09 3.08C181.57 3.08 180.05 4.17 180.05 5.77Z"></path></g></svg>