<svg width="223" height="154" viewBox="0 0 223 154" fill="none" xmlns="http://www.w3.org/2000/svg">
<path d="M1.29545 73.5058V65.8694H31.6364V73.5058H21.1364V100.779H11.7955V73.5058H1.29545ZM54.4222 65.8694H63.8995V88.2331C63.8995 90.8922 63.2631 93.1933 61.9904 95.1365C60.729 97.0683 58.9677 98.5626 56.7063 99.6194C54.4449 100.665 51.8199 101.188 48.8313 101.188C45.8199 101.188 43.1836 100.665 40.9222 99.6194C38.6609 98.5626 36.8995 97.0683 35.6381 95.1365C34.3881 93.1933 33.7631 90.8922 33.7631 88.2331V65.8694H43.2404V87.4149C43.2404 88.4944 43.479 89.4604 43.9563 90.3126C44.4336 91.1535 45.0927 91.8126 45.9336 92.2899C46.7859 92.7672 47.7518 93.0058 48.8313 93.0058C49.9222 93.0058 50.8881 92.7672 51.729 92.2899C52.5699 91.8126 53.229 91.1535 53.7063 90.3126C54.1836 89.4604 54.4222 88.4944 54.4222 87.4149V65.8694ZM97.1683 65.8694V100.779H89.2592L76.6456 82.4376H76.441V100.779H66.9638V65.8694H75.0092L87.4183 84.1422H87.691V65.8694H97.1683ZM109.689 65.8694V100.779H100.211V65.8694H109.689ZM126.172 100.779H112.74V65.8694H126.035C129.626 65.8694 132.729 66.5683 135.342 67.966C137.967 69.3524 139.99 71.3524 141.41 73.966C142.842 76.5683 143.558 79.6876 143.558 83.324C143.558 86.9604 142.848 90.0854 141.427 92.699C140.007 95.3013 137.996 97.3013 135.393 98.699C132.791 100.085 129.717 100.779 126.172 100.779ZM122.217 92.7331H125.831C127.558 92.7331 129.03 92.4547 130.246 91.8979C131.473 91.341 132.405 90.3808 133.041 89.0172C133.689 87.6535 134.013 85.7558 134.013 83.324C134.013 80.8922 133.683 78.9944 133.024 77.6308C132.376 76.2672 131.422 75.3069 130.16 74.7501C128.91 74.1933 127.376 73.9149 125.558 73.9149H122.217V92.7331ZM153.368 100.779H143.141L154.664 65.8694H167.618L179.141 100.779H168.914L161.277 75.4831H161.005L153.368 100.779ZM151.459 87.0058H170.686V94.0967H151.459V87.0058ZM194.495 100.779H181.063V65.8694H194.359C197.949 65.8694 201.052 66.5683 203.665 67.966C206.29 69.3524 208.313 71.3524 209.734 73.966C211.165 76.5683 211.881 79.6876 211.881 83.324C211.881 86.9604 211.171 90.0854 209.751 92.699C208.33 95.3013 206.319 97.3013 203.717 98.699C201.114 100.085 198.04 100.779 194.495 100.779ZM190.54 92.7331H194.154C195.881 92.7331 197.353 92.4547 198.569 91.8979C199.796 91.341 200.728 90.3808 201.364 89.0172C202.012 87.6535 202.336 85.7558 202.336 83.324C202.336 80.8922 202.006 78.9944 201.347 77.6308C200.699 76.2672 199.745 75.3069 198.484 74.7501C197.234 74.1933 195.699 73.9149 193.881 73.9149H190.54V92.7331Z" fill="black"/>
<path d="M6.25 142.121V107.212H31.4091V114.848H15.7273V120.848H30.1136V128.484H15.7273V134.484H31.3409V142.121H6.25ZM52.0476 118.121C51.9566 116.984 51.5305 116.098 50.7691 115.462C50.0191 114.825 48.8771 114.507 47.343 114.507C46.3657 114.507 45.5646 114.626 44.9396 114.865C44.326 115.092 43.8714 115.405 43.576 115.803C43.2805 116.2 43.1271 116.655 43.1157 117.166C43.093 117.587 43.1669 117.967 43.3373 118.308C43.5191 118.638 43.8032 118.939 44.1896 119.212C44.576 119.473 45.0703 119.712 45.6726 119.928C46.2748 120.144 46.9907 120.337 47.8203 120.507L50.6839 121.121C52.6157 121.53 54.2691 122.07 55.6441 122.74C57.0191 123.411 58.1441 124.2 59.0191 125.109C59.8941 126.007 60.5362 127.019 60.9453 128.144C61.3657 129.269 61.5816 130.496 61.593 131.825C61.5816 134.121 61.0078 136.064 59.8714 137.655C58.7351 139.246 57.1101 140.456 54.9964 141.286C52.8941 142.115 50.3657 142.53 47.4112 142.53C44.3771 142.53 41.7294 142.081 39.468 141.183C37.218 140.286 35.468 138.905 34.218 137.041C32.9794 135.166 32.3544 132.769 32.343 129.848H41.343C41.3998 130.916 41.6669 131.814 42.1441 132.541C42.6214 133.269 43.2919 133.82 44.1555 134.195C45.0305 134.57 46.0703 134.757 47.2748 134.757C48.2862 134.757 49.1328 134.632 49.8146 134.382C50.4964 134.132 51.0135 133.786 51.3657 133.342C51.718 132.899 51.8998 132.394 51.9112 131.825C51.8998 131.291 51.7237 130.825 51.3828 130.428C51.0532 130.019 50.5078 129.655 49.7464 129.337C48.9851 129.007 47.9566 128.7 46.6612 128.416L43.1839 127.666C40.093 126.996 37.6555 125.876 35.8714 124.308C34.0987 122.729 33.218 120.575 33.2294 117.848C33.218 115.632 33.8089 113.695 35.0021 112.036C36.2066 110.365 37.8714 109.064 39.9964 108.132C42.1328 107.2 44.5816 106.734 47.343 106.734C50.1612 106.734 52.5987 107.206 54.6555 108.149C56.7123 109.092 58.2976 110.422 59.4112 112.138C60.5362 113.842 61.1044 115.837 61.1157 118.121H52.0476Z" fill="black"/>
<path d="M116.068 43.0152C116.068 46.9016 115.313 50.18 113.801 52.8505C112.29 55.5096 110.25 57.5266 107.682 58.9016C105.114 60.2652 102.25 60.9471 99.0909 60.9471C95.9091 60.9471 93.0341 60.2596 90.4659 58.8846C87.9091 57.4982 85.875 55.4755 84.3636 52.8164C82.8636 50.1459 82.1136 46.8789 82.1136 43.0152C82.1136 39.1289 82.8636 35.8562 84.3636 33.1971C85.875 30.5266 87.9091 28.5096 90.4659 27.1459C93.0341 25.7709 95.9091 25.0834 99.0909 25.0834C102.25 25.0834 105.114 25.7709 107.682 27.1459C110.25 28.5096 112.29 30.5266 113.801 33.1971C115.313 35.8562 116.068 39.1289 116.068 43.0152ZM106.318 43.0152C106.318 40.9243 106.04 39.163 105.483 37.7312C104.938 36.288 104.125 35.1971 103.045 34.4584C101.977 33.7084 100.659 33.3334 99.0909 33.3334C97.5227 33.3334 96.1989 33.7084 95.1193 34.4584C94.0511 35.1971 93.2386 36.288 92.6818 37.7312C92.1364 39.163 91.8636 40.9243 91.8636 43.0152C91.8636 45.1062 92.1364 46.8732 92.6818 48.3164C93.2386 49.7482 94.0511 50.8391 95.1193 51.5891C96.1989 52.3277 97.5227 52.6971 99.0909 52.6971C100.659 52.6971 101.977 52.3277 103.045 51.5891C104.125 50.8391 104.938 49.7482 105.483 48.3164C106.04 46.8732 106.318 45.1062 106.318 43.0152ZM117.573 60.4698V25.5607H132.641C135.232 25.5607 137.499 26.0721 139.442 27.0948C141.386 28.1175 142.897 29.555 143.977 31.4073C145.056 33.2596 145.596 35.4243 145.596 37.9016C145.596 40.4016 145.039 42.5664 143.925 44.3959C142.823 46.2255 141.272 47.6346 139.272 48.6232C137.283 49.6118 134.959 50.1062 132.3 50.1062H123.3V42.7425H130.391C131.505 42.7425 132.454 42.5493 133.238 42.163C134.033 41.7652 134.641 41.2027 135.062 40.4755C135.494 39.7482 135.709 38.8902 135.709 37.9016C135.709 36.9016 135.494 36.0493 135.062 35.3448C134.641 34.6289 134.033 34.0834 133.238 33.7084C132.454 33.3221 131.505 33.1289 130.391 33.1289H127.05V60.4698H117.573ZM180.011 43.0152C180.011 46.9016 179.256 50.18 177.744 52.8505C176.233 55.5096 174.193 57.5266 171.625 58.9016C169.057 60.2652 166.193 60.9471 163.034 60.9471C159.852 60.9471 156.977 60.2596 154.409 58.8846C151.852 57.4982 149.818 55.4755 148.307 52.8164C146.807 50.1459 146.057 46.8789 146.057 43.0152C146.057 39.1289 146.807 35.8562 148.307 33.1971C149.818 30.5266 151.852 28.5096 154.409 27.1459C156.977 25.7709 159.852 25.0834 163.034 25.0834C166.193 25.0834 169.057 25.7709 171.625 27.1459C174.193 28.5096 176.233 30.5266 177.744 33.1971C179.256 35.8562 180.011 39.1289 180.011 43.0152ZM170.261 43.0152C170.261 40.9243 169.983 39.163 169.426 37.7312C168.881 36.288 168.068 35.1971 166.989 34.4584C165.92 33.7084 164.602 33.3334 163.034 33.3334C161.466 33.3334 160.142 33.7084 159.062 34.4584C157.994 35.1971 157.182 36.288 156.625 37.7312C156.079 39.163 155.807 40.9243 155.807 43.0152C155.807 45.1062 156.079 46.8732 156.625 48.3164C157.182 49.7482 157.994 50.8391 159.062 51.5891C160.142 52.3277 161.466 52.6971 163.034 52.6971C164.602 52.6971 165.92 52.3277 166.989 51.5891C168.068 50.8391 168.881 49.7482 169.426 48.3164C169.983 46.8732 170.261 45.1062 170.261 43.0152ZM181.516 60.4698V25.5607H196.584C199.175 25.5607 201.442 26.0323 203.386 26.9755C205.329 27.9187 206.84 29.2766 207.92 31.0493C208.999 32.8221 209.539 34.9471 209.539 37.4243C209.539 39.9243 208.982 42.0323 207.869 43.7482C206.766 45.4641 205.215 46.7596 203.215 47.6346C201.226 48.5096 198.903 48.9471 196.244 48.9471H187.244V41.5834H194.334C195.448 41.5834 196.397 41.4471 197.181 41.1743C197.976 40.8902 198.584 40.4414 199.005 39.8277C199.437 39.2141 199.653 38.413 199.653 37.4243C199.653 36.4243 199.437 35.6118 199.005 34.9868C198.584 34.3505 197.976 33.8846 197.181 33.5891C196.397 33.2823 195.448 33.1289 194.334 33.1289H190.994V60.4698H181.516ZM201.971 44.4471L210.698 60.4698H200.403L191.88 44.4471H201.971Z" fill="black"/>
<path d="M14.4408 35.0152V52.4698H9.70213V39.3789H9.59985L5.78167 41.663V37.6402L10.0771 35.0152H14.4408ZM16.4141 49.7425V46.0607L23.4368 35.0152H26.7778V39.9243H24.8687L21.0846 45.9243V46.0607H31.4482V49.7425H16.4141ZM24.9028 52.4698V48.6175L25.005 47.0152V35.0152H29.4368V52.4698H24.9028ZM31.8257 49.7425V46.0607L38.8484 35.0152H42.1893V39.9243H40.2802L36.4961 45.9243V46.0607H46.8598V49.7425H31.8257ZM40.3143 52.4698V48.6175L40.4166 47.0152V35.0152H44.8484V52.4698H40.3143Z" fill="black"/>
<mask id="path-5-outside-1_88_715" maskUnits="userSpaceOnUse" x="59.3025" y="28" width="10" height="31" fill="black">
<rect fill="white" x="59.3025" y="28" width="10" height="31"/>
<path d="M66.224 31.767V55.6875H62.3888V31.767H66.224Z"/>
</mask>
<path d="M66.224 31.767V55.6875H62.3888V31.767H66.224Z" fill="#10E07F"/>
<path d="M66.224 31.767H69.224V28.767H66.224V31.767ZM66.224 55.6875V58.6875H69.224V55.6875H66.224ZM62.3888 55.6875H59.3888V58.6875H62.3888V55.6875ZM62.3888 31.767V28.767H59.3888V31.767H62.3888ZM63.224 31.767V55.6875H69.224V31.767H63.224ZM66.224 52.6875H62.3888V58.6875H66.224V52.6875ZM65.3888 55.6875V31.767H59.3888V55.6875H65.3888ZM62.3888 34.767H66.224V28.767H62.3888V34.767Z" fill="#10E07F" mask="url(#path-5-outside-1_88_715)"/>
</svg>
