<svg width="584" height="95" viewBox="0 0 584 95" fill="none" xmlns="http://www.w3.org/2000/svg">
<g clip-path="url(#clip0_6_15)">
<rect width="584" height="95" fill="white"/>
<g filter="url(#filter0_d_6_15)">
<g clip-path="url(#clip1_6_15)">
<rect x="13" y="9" width="404" height="77" rx="38.5" fill="#1F1B2D"/>
<path d="M73.8736 67V27.7273H88.6009C91.6179 27.7273 94.1491 28.2514 96.1946 29.2997C98.2528 30.348 99.8061 31.8182 100.854 33.7102C101.915 35.5895 102.446 37.782 102.446 40.2876C102.446 42.8061 101.909 44.9922 100.835 46.8459C99.7741 48.6868 98.2081 50.1122 96.1371 51.1222C94.0661 52.1193 91.522 52.6179 88.505 52.6179H78.0156V46.7116H87.5462C89.3104 46.7116 90.755 46.4687 91.88 45.983C93.005 45.4844 93.8359 44.7621 94.3729 43.8161C94.9226 42.8572 95.1974 41.6811 95.1974 40.2876C95.1974 38.8942 94.9226 37.7053 94.3729 36.7209C93.8232 35.7237 92.9858 34.9695 91.8608 34.4581C90.7358 33.9339 89.2848 33.6719 87.5078 33.6719H80.9879V67H73.8736ZM94.1619 49.2045L103.884 67H95.9453L86.3956 49.2045H94.1619ZM115.118 67H107.524L121.35 27.7273H130.133L143.978 67H136.384L125.895 35.7812H125.588L115.118 67ZM115.367 51.6016H136.078V57.3161H115.367V51.6016ZM163.539 67H150.231V27.7273H163.808C167.707 27.7273 171.056 28.5135 173.856 30.0859C176.668 31.6456 178.829 33.8892 180.337 36.8168C181.846 39.7443 182.6 43.2472 182.6 47.3253C182.6 51.4162 181.84 54.9318 180.318 57.8722C178.81 60.8125 176.63 63.0689 173.779 64.6413C170.941 66.2138 167.528 67 163.539 67ZM157.345 60.8445H163.194C165.93 60.8445 168.212 60.3459 170.04 59.3487C171.868 58.3388 173.242 56.8366 174.163 54.8423C175.083 52.8352 175.543 50.3295 175.543 47.3253C175.543 44.321 175.083 41.8281 174.163 39.8466C173.242 37.8523 171.881 36.3629 170.078 35.3786C168.288 34.3814 166.064 33.8828 163.405 33.8828H157.345V60.8445ZM193.374 67H185.78L199.606 27.7273H208.389L222.234 67H214.64L204.151 35.7812H203.844L193.374 67ZM193.623 51.6016H214.333V57.3161H193.623V51.6016ZM228.487 67V27.7273H243.214C246.231 27.7273 248.762 28.2514 250.808 29.2997C252.866 30.348 254.419 31.8182 255.467 33.7102C256.528 35.5895 257.059 37.782 257.059 40.2876C257.059 42.8061 256.522 44.9922 255.448 46.8459C254.387 48.6868 252.821 50.1122 250.75 51.1222C248.679 52.1193 246.135 52.6179 243.118 52.6179H232.629V46.7116H242.159C243.923 46.7116 245.368 46.4687 246.493 45.983C247.618 45.4844 248.449 44.7621 248.986 43.8161C249.536 42.8572 249.81 41.6811 249.81 40.2876C249.81 38.8942 249.536 37.7053 248.986 36.7209C248.436 35.7237 247.599 34.9695 246.474 34.4581C245.349 33.9339 243.898 33.6719 242.121 33.6719H235.601V67H228.487ZM248.775 49.2045L258.497 67H250.558L241.009 49.2045H248.775ZM262.962 33.6911V27.7273H294.296V33.6911H282.157V67H275.1V33.6911H262.962ZM301.416 67V27.7273H326.959V33.6911H308.53V44.353H325.636V50.3168H308.53V61.0362H327.112V67H301.416ZM356.64 38.5234C356.461 36.8487 355.707 35.5447 354.377 34.6115C353.06 33.6783 351.347 33.2116 349.238 33.2116C347.755 33.2116 346.483 33.4354 345.422 33.8828C344.361 34.3303 343.549 34.9375 342.986 35.7045C342.424 36.4716 342.136 37.3473 342.124 38.3317C342.124 39.1499 342.309 39.8594 342.68 40.4602C343.063 41.0611 343.581 41.5724 344.233 41.9943C344.885 42.4034 345.607 42.7486 346.4 43.0298C347.192 43.3111 347.991 43.5476 348.797 43.7393L352.479 44.6598C353.962 45.005 355.387 45.4716 356.755 46.0597C358.136 46.6477 359.369 47.3892 360.456 48.2841C361.555 49.179 362.425 50.2592 363.064 51.5249C363.703 52.7905 364.023 54.2734 364.023 55.9737C364.023 58.2749 363.435 60.3011 362.259 62.0526C361.082 63.7912 359.382 65.1527 357.158 66.1371C354.946 67.1087 352.268 67.5945 349.123 67.5945C346.067 67.5945 343.415 67.1214 341.165 66.1754C338.928 65.2294 337.176 63.8487 335.91 62.0334C334.658 60.218 333.98 58.0064 333.878 55.3984H340.877C340.979 56.7663 341.401 57.9041 342.143 58.8118C342.884 59.7195 343.849 60.397 345.038 60.8445C346.24 61.2919 347.582 61.5156 349.065 61.5156C350.612 61.5156 351.967 61.2855 353.131 60.8253C354.307 60.3523 355.227 59.7003 355.892 58.8693C356.557 58.0256 356.896 57.0412 356.908 55.9162C356.896 54.8935 356.595 54.0497 356.007 53.3849C355.419 52.7074 354.594 52.1449 353.533 51.6974C352.485 51.2372 351.258 50.8281 349.852 50.4702L345.384 49.3196C342.149 48.4886 339.592 47.2294 337.713 45.5419C335.847 43.8416 334.913 41.5852 334.913 38.7727C334.913 36.4588 335.54 34.4325 336.793 32.6939C338.058 30.9553 339.778 29.6065 341.951 28.6477C344.124 27.6761 346.585 27.1903 349.334 27.1903C352.121 27.1903 354.562 27.6761 356.659 28.6477C358.768 29.6065 360.424 30.9425 361.626 32.6555C362.827 34.3558 363.447 36.3118 363.486 38.5234H356.64Z" fill="white"/>
</g>
</g>
<circle cx="457" cy="48" r="16" fill="#6232FF"/>
<circle cx="543" cy="48" r="16" fill="#F15BB5"/>
<circle cx="514" cy="48" r="16" fill="#F3CE3A"/>
<circle cx="486" cy="48" r="16" fill="#CEFF1C"/>
</g>
<defs>
<filter id="filter0_d_6_15" x="-4.9" y="-3.9" width="433.8" height="106.8" filterUnits="userSpaceOnUse" color-interpolation-filters="sRGB">
<feFlood flood-opacity="0" result="BackgroundImageFix"/>
<feColorMatrix in="SourceAlpha" type="matrix" values="0 0 0 0 0 0 0 0 0 0 0 0 0 0 0 0 0 0 127 0" result="hardAlpha"/>
<feMorphology radius="2" operator="dilate" in="SourceAlpha" result="effect1_dropShadow_6_15"/>
<feOffset dx="-3" dy="2"/>
<feGaussianBlur stdDeviation="6.45"/>
<feComposite in2="hardAlpha" operator="out"/>
<feColorMatrix type="matrix" values="0 0 0 0 0 0 0 0 0 0 0 0 0 0 0 0 0 0 0.1 0"/>
<feBlend mode="normal" in2="BackgroundImageFix" result="effect1_dropShadow_6_15"/>
<feBlend mode="normal" in="SourceGraphic" in2="effect1_dropShadow_6_15" result="shape"/>
</filter>
<clipPath id="clip0_6_15">
<rect width="584" height="95" fill="white"/>
</clipPath>
<clipPath id="clip1_6_15">
<rect x="13" y="9" width="404" height="77" rx="38.5" fill="white"/>
</clipPath>
</defs>
</svg>
