<svg width="584" height="95" viewBox="0 0 584 95" fill="none" xmlns="http://www.w3.org/2000/svg">
<g clip-path="url(#clip0_6_15)">
<rect width="584" height="95" fill="white"/>
<g filter="url(#filter0_d_6_15)">
<g clip-path="url(#clip1_6_15)">
<rect x="13" y="9" width="404" height="77" rx="38.5" fill="#1F1B2D"/>
<path d="M43.5909 71V24.4545H61.0455C64.6212 24.4545 67.6212 25.0758 70.0455 26.3182C72.4849 27.5606 74.3258 29.303 75.5682 31.5455C76.8258 33.7727 77.4545 36.3712 77.4545 39.3409C77.4545 42.3258 76.8182 44.9167 75.5455 47.1136C74.2879 49.2955 72.4318 50.9848 69.9773 52.1818C67.5227 53.3636 64.5076 53.9545 60.9318 53.9545H48.5V46.9545H59.7955C61.8864 46.9545 63.5985 46.6667 64.9318 46.0909C66.2652 45.5 67.25 44.6439 67.8864 43.5227C68.5379 42.3864 68.8636 40.9924 68.8636 39.3409C68.8636 37.6894 68.5379 36.2803 67.8864 35.1136C67.2348 33.9318 66.2424 33.0379 64.9091 32.4318C63.5758 31.8106 61.8561 31.5 59.75 31.5H52.0227V71H43.5909ZM67.6364 49.9091L79.1591 71H69.75L58.4318 49.9091H67.6364ZM92.4732 71H83.4732L99.8595 24.4545H110.269L126.678 71H117.678L105.246 34H104.882L92.4732 71ZM92.7686 52.75H117.314V59.5227H92.7686V52.75ZM149.861 71H134.088V24.4545H150.179C154.801 24.4545 158.77 25.3864 162.088 27.25C165.422 29.0985 167.982 31.7576 169.77 35.2273C171.558 38.697 172.452 42.8485 172.452 47.6818C172.452 52.5303 171.551 56.697 169.747 60.1818C167.96 63.6667 165.376 66.3409 161.997 68.2045C158.634 70.0682 154.588 71 149.861 71ZM142.52 63.7045H149.452C152.694 63.7045 155.399 63.1136 157.566 61.9318C159.732 60.7348 161.361 58.9545 162.452 56.5909C163.543 54.2121 164.088 51.2424 164.088 47.6818C164.088 44.1212 163.543 41.1667 162.452 38.8182C161.361 36.4545 159.747 34.6894 157.611 33.5227C155.49 32.3409 152.854 31.75 149.702 31.75H142.52V63.7045ZM185.221 71H176.221L192.607 24.4545H203.016L219.425 71H210.425L197.993 34H197.63L185.221 71ZM185.516 52.75H210.062V59.5227H185.516V52.75ZM226.836 71V24.4545H244.29C247.866 24.4545 250.866 25.0758 253.29 26.3182C255.73 27.5606 257.571 29.303 258.813 31.5455C260.071 33.7727 260.7 36.3712 260.7 39.3409C260.7 42.3258 260.063 44.9167 258.79 47.1136C257.533 49.2955 255.677 50.9848 253.222 52.1818C250.768 53.3636 247.753 53.9545 244.177 53.9545H231.745V46.9545H243.04C245.131 46.9545 246.843 46.6667 248.177 46.0909C249.51 45.5 250.495 44.6439 251.131 43.5227C251.783 42.3864 252.109 40.9924 252.109 39.3409C252.109 37.6894 251.783 36.2803 251.131 35.1136C250.48 33.9318 249.487 33.0379 248.154 32.4318C246.821 31.8106 245.101 31.5 242.995 31.5H235.268V71H226.836ZM250.881 49.9091L262.404 71H252.995L241.677 49.9091H250.881ZM267.695 31.5227V24.4545H304.832V31.5227H290.445V71H282.082V31.5227H267.695ZM313.271 71V24.4545H343.544V31.5227H321.703V44.1591H341.975V51.2273H321.703V63.9318H343.725V71H313.271ZM378.721 37.25C378.509 35.2652 377.615 33.7197 376.04 32.6136C374.479 31.5076 372.449 30.9545 369.949 30.9545C368.191 30.9545 366.683 31.2197 365.426 31.75C364.168 32.2803 363.206 33 362.54 33.9091C361.873 34.8182 361.532 35.8561 361.517 37.0227C361.517 37.9924 361.737 38.8333 362.176 39.5455C362.63 40.2576 363.244 40.8636 364.017 41.3636C364.79 41.8485 365.646 42.2576 366.585 42.5909C367.524 42.9242 368.471 43.2045 369.426 43.4318L373.79 44.5227C375.547 44.9318 377.237 45.4848 378.858 46.1818C380.494 46.8788 381.956 47.7576 383.244 48.8182C384.547 49.8788 385.577 51.1591 386.335 52.6591C387.093 54.1591 387.471 55.9167 387.471 57.9318C387.471 60.6591 386.774 63.0606 385.38 65.1364C383.987 67.197 381.971 68.8106 379.335 69.9773C376.714 71.1288 373.54 71.7045 369.812 71.7045C366.191 71.7045 363.047 71.1439 360.38 70.0227C357.729 68.9015 355.653 67.2652 354.153 65.1136C352.668 62.9621 351.865 60.3409 351.744 57.25H360.04C360.161 58.8712 360.661 60.2197 361.54 61.2955C362.418 62.3712 363.562 63.1742 364.971 63.7045C366.396 64.2348 367.987 64.5 369.744 64.5C371.577 64.5 373.183 64.2273 374.562 63.6818C375.956 63.1212 377.047 62.3485 377.835 61.3636C378.623 60.3636 379.024 59.197 379.04 57.8636C379.024 56.6515 378.668 55.6515 377.971 54.8636C377.274 54.0606 376.297 53.3939 375.04 52.8636C373.797 52.3182 372.343 51.8333 370.676 51.4091L365.38 50.0455C361.547 49.0606 358.517 47.5682 356.29 45.5682C354.077 43.553 352.971 40.8788 352.971 37.5455C352.971 34.803 353.714 32.4015 355.199 30.3409C356.699 28.2803 358.737 26.6818 361.312 25.5455C363.888 24.3939 366.805 23.8182 370.062 23.8182C373.365 23.8182 376.259 24.3939 378.744 25.5455C381.244 26.6818 383.206 28.2652 384.63 30.2955C386.055 32.3106 386.79 34.6288 386.835 37.25H378.721Z" fill="white"/>
</g>
</g>
<circle cx="457" cy="48" r="16" fill="#6232FF"/>
<circle cx="543" cy="48" r="16" fill="#F15BB5"/>
<circle cx="514" cy="48" r="16" fill="#F3CE3A"/>
<circle cx="486" cy="48" r="16" fill="#CEFF1C"/>
</g>
<defs>
<filter id="filter0_d_6_15" x="-1.1" y="-6.1" width="436.2" height="109.2" filterUnits="userSpaceOnUse" color-interpolation-filters="sRGB">
<feFlood flood-opacity="0" result="BackgroundImageFix"/>
<feColorMatrix in="SourceAlpha" type="matrix" values="0 0 0 0 0 0 0 0 0 0 0 0 0 0 0 0 0 0 127 0" result="hardAlpha"/>
<feMorphology radius="5" operator="dilate" in="SourceAlpha" result="effect1_dropShadow_6_15"/>
<feOffset dx="2" dy="1"/>
<feGaussianBlur stdDeviation="5.55"/>
<feComposite in2="hardAlpha" operator="out"/>
<feColorMatrix type="matrix" values="0 0 0 0 0 0 0 0 0 0 0 0 0 0 0 0 0 0 0.25 0"/>
<feBlend mode="normal" in2="BackgroundImageFix" result="effect1_dropShadow_6_15"/>
<feBlend mode="normal" in="SourceGraphic" in2="effect1_dropShadow_6_15" result="shape"/>
</filter>
<clipPath id="clip0_6_15">
<rect width="584" height="95" fill="white"/>
</clipPath>
<clipPath id="clip1_6_15">
<rect x="13" y="9" width="404" height="77" rx="38.5" fill="white"/>
</clipPath>
</defs>
</svg>
