<svg width="181" height="125" viewBox="0 0 181 125" fill="none" xmlns="http://www.w3.org/2000/svg">
<path d="M1.05151 59.6637V53.4653H25.6789V59.6637H17.1562V81.801H9.57428V59.6637H1.05151ZM44.1739 53.4653H51.8665V71.6177C51.8665 73.776 51.3499 75.6438 50.3169 77.2211C49.293 78.7891 47.8634 80.002 46.0278 80.8598C44.1923 81.7085 42.0616 82.133 39.6358 82.133C37.1915 82.133 35.0516 81.7085 33.2161 80.8598C31.3806 80.002 29.9509 78.7891 28.927 77.2211C27.9124 75.6438 27.4051 73.776 27.4051 71.6177V53.4653H35.0977V70.9536C35.0977 71.8298 35.2914 72.6139 35.6788 73.3056C36.0662 73.9881 36.6012 74.5231 37.2838 74.9105C37.9756 75.298 38.7596 75.4916 39.6358 75.4916C40.5213 75.4916 41.3053 75.298 41.9878 74.9105C42.6704 74.5231 43.2053 73.9881 43.5928 73.3056C43.9802 72.6139 44.1739 71.8298 44.1739 70.9536V53.4653ZM78.8703 53.4653V81.801H72.4506L62.2123 66.9135H62.0462V81.801H54.3537V53.4653H60.8841L70.9564 68.2971H71.1777V53.4653H78.8703ZM89.0332 53.4653V81.801H81.3401V53.4653H89.0332ZM102.412 81.801H91.5097V53.4653H102.301C105.216 53.4653 107.735 54.0326 109.855 55.1671C111.986 56.2924 113.628 57.9158 114.781 60.0372C115.943 62.1495 116.524 64.6814 116.524 67.633C116.524 70.5846 115.948 73.1212 114.795 75.2426C113.642 77.3549 112.01 78.9782 109.897 80.1127C107.785 81.2377 105.29 81.801 102.412 81.801ZM99.2021 75.2703H102.136C103.537 75.2703 104.732 75.0443 105.719 74.5924C106.715 74.1403 107.472 73.3609 107.988 72.2541C108.514 71.1472 108.777 69.6069 108.777 67.633C108.777 65.6592 108.509 64.1187 107.974 63.0119C107.448 61.9051 106.674 61.1256 105.649 60.6737C104.635 60.2217 103.39 59.9958 101.914 59.9958H99.2021V75.2703ZM124.487 81.801H116.186L125.539 53.4653H136.054L145.407 81.801H137.105L130.907 61.2687H130.686L124.487 81.801ZM122.937 70.6215H138.544V76.3771H122.937V70.6215ZM157.869 81.801H146.967V53.4653H157.759C160.673 53.4653 163.191 54.0326 165.312 55.1671C167.443 56.2924 169.085 57.9158 170.239 60.0372C171.4 62.1495 171.981 64.6814 171.981 67.633C171.981 70.5846 171.405 73.1212 170.252 75.2426C169.099 77.3549 167.467 78.9782 165.355 80.1127C163.242 81.2377 160.747 81.801 157.869 81.801ZM154.659 75.2703H157.592C158.994 75.2703 160.189 75.0443 161.176 74.5924C162.172 74.1403 162.928 73.3609 163.445 72.2541C163.971 71.1472 164.234 69.6069 164.234 67.633C164.234 65.6592 163.966 64.1187 163.431 63.0119C162.905 61.9051 162.131 61.1256 161.107 60.6737C160.092 60.2217 158.847 59.9958 157.371 59.9958H154.659V75.2703Z" fill="black"/>
<path d="M5.07306 115.358V87.0228H25.4944V93.2208H12.7657V98.0909H24.4429V104.289H12.7657V109.159H25.4391V115.358H5.07306ZM42.2464 95.8775C42.1726 94.9546 41.8267 94.2354 41.2087 93.7192C40.5999 93.2021 39.673 92.944 38.4278 92.944C37.6345 92.944 36.9843 93.0406 36.477 93.2346C35.9789 93.4189 35.6099 93.6729 35.3701 93.996C35.1303 94.3182 35.0058 94.6875 34.9965 95.1023C34.9781 95.444 35.0381 95.7525 35.1764 96.0292C35.324 96.2971 35.5546 96.5414 35.8682 96.763C36.1818 96.9749 36.583 97.1689 37.0719 97.3442C37.5607 97.5195 38.1418 97.6762 38.8152 97.8142L41.1395 98.3125C42.7076 98.6445 44.0496 99.0828 45.1657 99.6267C46.2817 100.171 47.1949 100.812 47.9051 101.55C48.6154 102.278 49.1365 103.1 49.4686 104.013C49.8098 104.926 49.9851 105.922 49.9943 107.001C49.9851 108.864 49.5193 110.442 48.5969 111.733C47.6746 113.024 46.3556 114.007 44.6399 114.68C42.9335 115.353 40.8813 115.69 38.4831 115.69C36.0204 115.69 33.8713 115.326 32.0357 114.597C30.2094 113.869 28.789 112.748 27.7744 111.235C26.769 109.713 26.2617 107.767 26.2524 105.396H33.5576C33.6037 106.263 33.8205 106.992 34.2079 107.582C34.5953 108.173 35.1395 108.62 35.8405 108.925C36.5507 109.229 37.3947 109.381 38.3724 109.381C39.1934 109.381 39.8805 109.279 40.4339 109.076C40.9874 108.873 41.4071 108.593 41.693 108.232C41.9789 107.873 42.1265 107.463 42.1357 107.001C42.1265 106.567 41.9835 106.189 41.7068 105.867C41.4393 105.535 40.9966 105.239 40.3786 104.981C39.7606 104.714 38.9258 104.464 37.8744 104.234L35.0519 103.625C32.543 103.081 30.5645 102.172 29.1164 100.899C27.6775 99.6177 26.9627 97.8693 26.9719 95.6559C26.9627 93.8572 27.4423 92.2849 28.4108 90.9383C29.3885 89.582 30.7398 88.526 32.4646 87.7695C34.1987 87.013 36.1864 86.6348 38.4278 86.6348C40.7153 86.6348 42.6938 87.0179 44.3632 87.7833C46.0327 88.5487 47.3195 89.6283 48.2234 91.0211C49.1365 92.4042 49.5977 94.0236 49.6069 95.8775H42.2464Z" fill="black"/>
<path d="M94.2109 34.9149C94.2109 38.0695 93.5981 40.7305 92.3708 42.8981C91.1444 45.0565 89.4885 46.6936 87.4041 47.8097C85.3197 48.9165 82.995 49.47 80.4308 49.47C77.8482 49.47 75.5146 48.912 73.43 47.7959C71.3547 46.6706 69.7037 45.0288 68.4769 42.8704C67.2593 40.7028 66.6506 38.051 66.6506 34.9149C66.6506 31.7604 67.2593 29.104 68.4769 26.9457C69.7037 24.778 71.3547 23.1409 73.43 22.034C75.5146 20.9179 77.8482 20.3599 80.4308 20.3599C82.995 20.3599 85.3197 20.9179 87.4041 22.034C89.4885 23.1409 91.1444 24.778 92.3708 26.9457C93.5981 29.104 94.2109 31.7604 94.2109 34.9149ZM86.297 34.9149C86.297 33.2177 86.0713 31.7881 85.6192 30.6259C85.1769 29.4545 84.517 28.569 83.6403 27.9694C82.7734 27.3607 81.7036 27.0563 80.4308 27.0563C79.1579 27.0563 78.0834 27.3607 77.2071 27.9694C76.3401 28.569 75.6806 29.4545 75.2287 30.6259C74.786 31.7881 74.5645 33.2177 74.5645 34.9149C74.5645 36.6121 74.786 38.0464 75.2287 39.2178C75.6806 40.38 76.3401 41.2655 77.2071 41.8742C78.0834 42.4738 79.1579 42.7736 80.4308 42.7736C81.7036 42.7736 82.7734 42.4738 83.6403 41.8742C84.517 41.2655 85.1769 40.38 85.6192 39.2178C86.0713 38.0464 86.297 36.6121 86.297 34.9149ZM95.4325 49.0826V20.7473H107.663C109.766 20.7473 111.606 21.1624 113.183 21.9925C114.761 22.8226 115.988 23.9894 116.864 25.4929C117.74 26.9964 118.178 28.7535 118.178 30.7643C118.178 32.7935 117.726 34.5506 116.822 36.0356C115.928 37.5207 114.669 38.6644 113.045 39.4669C111.431 40.2693 109.545 40.6706 107.386 40.6706H100.081V34.6936H105.837C106.741 34.6936 107.511 34.5367 108.148 34.2232C108.793 33.9003 109.286 33.4437 109.628 32.8535C109.979 32.2631 110.153 31.5667 110.153 30.7643C110.153 29.9526 109.979 29.2608 109.628 28.6889C109.286 28.1078 108.793 27.6651 108.148 27.3607C107.511 27.0471 106.741 26.8903 105.837 26.8903H103.125V49.0826H95.4325ZM146.113 34.9149C146.113 38.0695 145.5 40.7305 144.273 42.8981C143.046 45.0565 141.39 46.6936 139.306 47.8097C137.221 48.9165 134.897 49.47 132.333 49.47C129.75 49.47 127.416 48.912 125.332 47.7959C123.256 46.6706 121.605 45.0288 120.379 42.8704C119.161 40.7028 118.553 38.051 118.553 34.9149C118.553 31.7604 119.161 29.104 120.379 26.9457C121.605 24.778 123.256 23.1409 125.332 22.034C127.416 20.9179 129.75 20.3599 132.333 20.3599C134.897 20.3599 137.221 20.9179 139.306 22.034C141.39 23.1409 143.046 24.778 144.273 26.9457C145.5 29.104 146.113 31.7604 146.113 34.9149ZM138.199 34.9149C138.199 33.2177 137.973 31.7881 137.521 30.6259C137.079 29.4545 136.419 28.569 135.543 27.9694C134.675 27.3607 133.605 27.0563 132.333 27.0563C131.06 27.0563 129.985 27.3607 129.109 27.9694C128.242 28.569 127.583 29.4545 127.131 30.6259C126.687 31.7881 126.467 33.2177 126.467 34.9149C126.467 36.6121 126.687 38.0464 127.131 39.2178C127.583 40.38 128.242 41.2655 129.109 41.8742C129.985 42.4738 131.06 42.7736 132.333 42.7736C133.605 42.7736 134.675 42.4738 135.543 41.8742C136.419 41.2655 137.079 40.38 137.521 39.2178C137.973 38.0464 138.199 36.6121 138.199 34.9149ZM147.334 49.0826V20.7473H159.565C161.668 20.7473 163.508 21.1301 165.086 21.8957C166.663 22.6612 167.889 23.7634 168.766 25.2023C169.642 26.6413 170.08 28.3661 170.08 30.3768C170.08 32.4061 169.628 34.1171 168.725 35.5099C167.829 36.9026 166.57 37.9542 164.947 38.6644C163.333 39.3746 161.447 39.7298 159.289 39.7298H151.984V33.7527H157.738C158.643 33.7527 159.413 33.6421 160.049 33.4207C160.695 33.1901 161.188 32.8258 161.53 32.3276C161.881 31.8296 162.056 31.1794 162.056 30.3768C162.056 29.5651 161.881 28.9056 161.53 28.3983C161.188 27.8819 160.695 27.5037 160.049 27.2638C159.413 27.0148 158.643 26.8903 157.738 26.8903H155.027V49.0826H147.334ZM163.937 36.0772L171.021 49.0826H162.665L155.747 36.0772H163.937Z" fill="black"/>
<path d="M11.7214 28.4215V42.5891H7.87512V31.9634H7.7921L4.69293 33.8174V30.5521L8.17948 28.4215H11.7214ZM19.6322 42.9766C18.3455 42.9719 17.234 42.6744 16.2978 42.0841C15.3616 41.4938 14.6399 40.643 14.1326 39.5314C13.6253 38.42 13.3739 37.0872 13.3785 35.533C13.3831 33.9742 13.6368 32.6506 14.1395 31.5622C14.6468 30.4738 15.3663 29.646 16.2978 29.0787C17.234 28.5114 18.3455 28.2278 19.6322 28.2278C20.9189 28.2278 22.0304 28.5137 22.9666 29.0856C23.9028 29.6529 24.6245 30.4807 25.1318 31.5691C25.6391 32.6575 25.8905 33.9788 25.8859 35.533C25.8859 37.0964 25.6322 38.4339 25.1249 39.5453C24.6176 40.6568 23.8959 41.5076 22.9597 42.098C22.028 42.6837 20.9189 42.9766 19.6322 42.9766ZM19.6322 39.8497C20.2963 39.8497 20.8405 39.5038 21.2648 38.812C21.6937 38.1156 21.9059 37.0226 21.9012 35.533C21.9012 34.5598 21.8044 33.7643 21.6107 33.1464C21.417 32.5283 21.1495 32.0718 20.8082 31.7766C20.467 31.4768 20.0749 31.327 19.6322 31.327C18.9681 31.327 18.4262 31.6637 18.0065 32.337C17.5869 33.0103 17.3724 34.0757 17.3632 35.533C17.3585 36.5245 17.4531 37.3408 17.6468 37.9819C17.8405 38.6183 18.108 39.0887 18.4493 39.3931C18.7951 39.6975 19.1895 39.8497 19.6322 39.8497ZM32.6933 42.9766C31.4066 42.9719 30.2951 42.6744 29.3589 42.0841C28.4227 41.4938 27.7009 40.643 27.1936 39.5314C26.6863 38.42 26.435 37.0872 26.4395 35.533C26.4442 33.9742 26.6978 32.6506 27.2005 31.5622C27.7078 30.4738 28.4273 29.646 29.3589 29.0787C30.2951 28.5114 31.4066 28.2278 32.6933 28.2278C33.98 28.2278 35.0914 28.5137 36.0276 29.0856C36.9639 29.6529 37.6856 30.4807 38.193 31.5691C38.7003 32.6575 38.9516 33.9788 38.9469 35.533C38.9469 37.0964 38.6933 38.4339 38.186 39.5453C37.6787 40.6568 36.9569 41.5076 36.0207 42.098C35.0891 42.6837 33.98 42.9766 32.6933 42.9766ZM32.6933 39.8497C33.3574 39.8497 33.9016 39.5038 34.3259 38.812C34.7548 38.1156 34.9669 37.0226 34.9623 35.533C34.9623 34.5598 34.8654 33.7643 34.6718 33.1464C34.4781 32.5283 34.2106 32.0718 33.8693 31.7766C33.528 31.4768 33.136 31.327 32.6933 31.327C32.0292 31.327 31.4873 31.6637 31.0676 32.337C30.6479 33.0103 30.4335 34.0757 30.4242 35.533C30.4197 36.5245 30.5141 37.3408 30.7079 37.9819C30.9016 38.6183 31.1691 39.0887 31.5103 39.3931C31.8562 39.6975 32.2505 39.8497 32.6933 39.8497Z" fill="black"/>
<path d="M53.7532 25.7849V45.2009H50.6402V25.7849H53.7532Z" fill="#10E07F"/>
<mask id="mask0_12_4" style="mask-type:luminance" maskUnits="userSpaceOnUse" x="48" y="22" width="9" height="26">
<path d="M56.252 22.7273H48.1351V47.8896H56.252V22.7273Z" fill="white"/>
<path d="M53.7532 25.7849V45.2009H50.6402V25.7849H53.7532Z" fill="black"/>
</mask>
<g mask="url(#mask0_12_4)">
<path d="M53.7532 25.7849H56.1882V23.3499H53.7532V25.7849ZM53.7532 45.2009V47.636H56.1882V45.2009H53.7532ZM50.6402 45.2009H48.2051V47.636H50.6402V45.2009ZM50.6402 25.7849V23.3499H48.2051V25.7849H50.6402ZM51.3181 25.7849V45.2009H56.1882V25.7849H51.3181ZM53.7532 42.7659H50.6402V47.636H53.7532V42.7659ZM53.0753 45.2009V25.7849H48.2051V45.2009H53.0753ZM50.6402 28.22H53.7532V23.3499H50.6402V28.22Z" fill="#10E07F"/>
</g>
</svg>
