<svg width="434" height="95" viewBox="0 0 434 95" fill="none" xmlns="http://www.w3.org/2000/svg">
<g filter="url(#filter0_d_6_16)">
<g clip-path="url(#clip0_6_16)">
<rect x="11" y="9" width="404" height="77" rx="38.5" fill="#1F1B2D"/>
<path d="M39.5909 70V23.4545H57.0455C60.6212 23.4545 63.6212 24.0758 66.0455 25.3182C68.4849 26.5606 70.3258 28.303 71.5682 30.5455C72.8258 32.7727 73.4545 35.3712 73.4545 38.3409C73.4545 41.3258 72.8182 43.9167 71.5455 46.1136C70.2879 48.2955 68.4318 49.9848 65.9773 51.1818C63.5227 52.3636 60.5076 52.9545 56.9318 52.9545H44.5V45.9545H55.7955C57.8864 45.9545 59.5985 45.6667 60.9318 45.0909C62.2652 44.5 63.25 43.6439 63.8864 42.5227C64.5379 41.3864 64.8636 39.9924 64.8636 38.3409C64.8636 36.6894 64.5379 35.2803 63.8864 34.1136C63.2348 32.9318 62.2424 32.0379 60.9091 31.4318C59.5758 30.8106 57.8561 30.5 55.75 30.5H48.0227V70H39.5909ZM63.6364 48.9091L75.1591 70H65.75L54.4318 48.9091H63.6364ZM89.1132 70H80.1132L96.4995 23.4545H106.909L123.318 70H114.318L101.886 33H101.522L89.1132 70ZM89.4086 51.75H113.954V58.5227H89.4086V51.75ZM147.141 70H131.368V23.4545H147.459C152.081 23.4545 156.05 24.3864 159.368 26.25C162.702 28.0985 165.262 30.7576 167.05 34.2273C168.838 37.697 169.732 41.8485 169.732 46.6818C169.732 51.5303 168.831 55.697 167.027 59.1818C165.24 62.6667 162.656 65.3409 159.277 67.2045C155.914 69.0682 151.868 70 147.141 70ZM139.8 62.7045H146.732C149.974 62.7045 152.679 62.1136 154.846 60.9318C157.012 59.7348 158.641 57.9545 159.732 55.5909C160.823 53.2121 161.368 50.2424 161.368 46.6818C161.368 43.1212 160.823 40.1667 159.732 37.8182C158.641 35.4545 157.027 33.6894 154.891 32.5227C152.77 31.3409 150.134 30.75 146.982 30.75H139.8V62.7045ZM183.141 70H174.141L190.527 23.4545H200.936L217.345 70H208.345L195.913 33H195.55L183.141 70ZM183.436 51.75H207.982V58.5227H183.436V51.75ZM225.396 70V23.4545H242.85C246.426 23.4545 249.426 24.0758 251.85 25.3182C254.29 26.5606 256.131 28.303 257.373 30.5455C258.631 32.7727 259.26 35.3712 259.26 38.3409C259.26 41.3258 258.623 43.9167 257.35 46.1136C256.093 48.2955 254.237 49.9848 251.782 51.1818C249.328 52.3636 246.313 52.9545 242.737 52.9545H230.305V45.9545H241.6C243.691 45.9545 245.403 45.6667 246.737 45.0909C248.07 44.5 249.055 43.6439 249.691 42.5227C250.343 41.3864 250.669 39.9924 250.669 38.3409C250.669 36.6894 250.343 35.2803 249.691 34.1136C249.04 32.9318 248.047 32.0379 246.714 31.4318C245.381 30.8106 243.661 30.5 241.555 30.5H233.828V70H225.396ZM249.441 48.9091L260.964 70H251.555L240.237 48.9091H249.441ZM266.895 30.5227V23.4545H304.032V30.5227H289.645V70H281.282V30.5227H266.895ZM313.111 70V23.4545H343.384V30.5227H321.543V43.1591H341.815V50.2273H321.543V62.9318H343.565V70H313.111ZM379.201 36.25C378.989 34.2652 378.095 32.7197 376.52 31.6136C374.959 30.5076 372.929 29.9545 370.429 29.9545C368.671 29.9545 367.163 30.2197 365.906 30.75C364.648 31.2803 363.686 32 363.02 32.9091C362.353 33.8182 362.012 34.8561 361.997 36.0227C361.997 36.9924 362.217 37.8333 362.656 38.5455C363.11 39.2576 363.724 39.8636 364.497 40.3636C365.27 40.8485 366.126 41.2576 367.065 41.5909C368.004 41.9242 368.951 42.2045 369.906 42.4318L374.27 43.5227C376.027 43.9318 377.717 44.4848 379.338 45.1818C380.974 45.8788 382.436 46.7576 383.724 47.8182C385.027 48.8788 386.057 50.1591 386.815 51.6591C387.573 53.1591 387.951 54.9167 387.951 56.9318C387.951 59.6591 387.254 62.0606 385.86 64.1364C384.467 66.197 382.451 67.8106 379.815 68.9773C377.194 70.1288 374.02 70.7045 370.292 70.7045C366.671 70.7045 363.527 70.1439 360.86 69.0227C358.209 67.9015 356.133 66.2652 354.633 64.1136C353.148 61.9621 352.345 59.3409 352.224 56.25H360.52C360.641 57.8712 361.141 59.2197 362.02 60.2955C362.898 61.3712 364.042 62.1742 365.451 62.7045C366.876 63.2348 368.467 63.5 370.224 63.5C372.057 63.5 373.663 63.2273 375.042 62.6818C376.436 62.1212 377.527 61.3485 378.315 60.3636C379.103 59.3636 379.504 58.197 379.52 56.8636C379.504 55.6515 379.148 54.6515 378.451 53.8636C377.754 53.0606 376.777 52.3939 375.52 51.8636C374.277 51.3182 372.823 50.8333 371.156 50.4091L365.86 49.0455C362.027 48.0606 358.997 46.5682 356.77 44.5682C354.557 42.553 353.451 39.8788 353.451 36.5455C353.451 33.803 354.194 31.4015 355.679 29.3409C357.179 27.2803 359.217 25.6818 361.792 24.5455C364.368 23.3939 367.285 22.8182 370.542 22.8182C373.845 22.8182 376.739 23.3939 379.224 24.5455C381.724 25.6818 383.686 27.2652 385.11 29.2955C386.535 31.3106 387.27 33.6288 387.315 36.25H379.201Z" fill="white"/>
</g>
</g>
<defs>
<filter id="filter0_d_6_16" x="-3.1" y="-6.1" width="436.2" height="109.2" filterUnits="userSpaceOnUse" color-interpolation-filters="sRGB">
<feFlood flood-opacity="0" result="BackgroundImageFix"/>
<feColorMatrix in="SourceAlpha" type="matrix" values="0 0 0 0 0 0 0 0 0 0 0 0 0 0 0 0 0 0 127 0" result="hardAlpha"/>
<feMorphology radius="5" operator="dilate" in="SourceAlpha" result="effect1_dropShadow_6_16"/>
<feOffset dx="2" dy="1"/>
<feGaussianBlur stdDeviation="5.55"/>
<feComposite in2="hardAlpha" operator="out"/>
<feColorMatrix type="matrix" values="0 0 0 0 0 0 0 0 0 0 0 0 0 0 0 0 0 0 0.25 0"/>
<feBlend mode="normal" in2="BackgroundImageFix" result="effect1_dropShadow_6_16"/>
<feBlend mode="normal" in="SourceGraphic" in2="effect1_dropShadow_6_16" result="shape"/>
</filter>
<clipPath id="clip0_6_16">
<rect x="11" y="9" width="404" height="77" rx="38.5" fill="white"/>
</clipPath>
</defs>
</svg>
