<svg width="153" height="23" viewBox="0 0 153 23" fill="none" xmlns="http://www.w3.org/2000/svg">
<g clip-path="url(#clip0_1_2)">
<path d="M0 11.6533C0 9.639 0.495117 7.79818 1.48535 6.13086C2.48405 4.45508 3.82552 3.13477 5.50977 2.16992C7.20247 1.20508 9.04329 0.722656 11.0322 0.722656C13.0296 0.722656 14.8704 1.20931 16.5547 2.18262C18.2474 3.15592 19.5889 4.48047 20.5791 6.15625C21.5693 7.82357 22.0645 9.65592 22.0645 11.6533C22.0645 13.6592 21.5651 15.5 20.5664 17.1758C19.5677 18.8431 18.222 20.1634 16.5293 21.1367C14.8451 22.1016 13.0127 22.584 11.0322 22.584C9.03483 22.584 7.18978 22.1016 5.49707 21.1367C3.81283 20.1634 2.47559 18.8431 1.48535 17.1758C0.495117 15.5 0 13.6592 0 11.6533ZM2.13281 11.6533C2.13281 13.2614 2.5306 14.751 3.32617 16.1221C4.13021 17.4847 5.21354 18.568 6.57617 19.3721C7.94727 20.1761 9.43262 20.5781 11.0322 20.5781C12.6403 20.5781 14.1257 20.1803 15.4883 19.3848C16.8509 18.5807 17.93 17.4974 18.7256 16.1348C19.5296 14.7721 19.9316 13.2783 19.9316 11.6533C19.9316 10.0283 19.5296 8.53451 18.7256 7.17188C17.93 5.80078 16.8509 4.71745 15.4883 3.92188C14.1257 3.1263 12.6403 2.72852 11.0322 2.72852C9.41569 2.72852 7.92611 3.13053 6.56348 3.93457C5.20085 4.73861 4.12174 5.82617 3.32617 7.19727C2.5306 8.5599 2.13281 10.0452 2.13281 11.6533ZM18.2432 11.6533C18.2432 12.6774 18.057 13.6465 17.6846 14.5605C17.3206 15.4746 16.8044 16.2829 16.1357 16.9854C15.4756 17.6794 14.7012 18.221 13.8125 18.6104C12.9323 18.9997 12.0055 19.1943 11.0322 19.1943C10.0589 19.1943 9.13216 18.9997 8.25195 18.6104C7.38021 18.221 6.61003 17.6794 5.94141 16.9854C5.27279 16.2913 4.75228 15.4873 4.37988 14.5732C4.01595 13.6507 3.83398 12.6774 3.83398 11.6533C3.83398 10.6377 4.02018 9.67285 4.39258 8.75879C4.76497 7.83626 5.28125 7.02376 5.94141 6.32129C6.60156 5.62728 7.37174 5.08561 8.25195 4.69629C9.13216 4.30697 10.0589 4.1123 11.0322 4.1123C12.0055 4.1123 12.9323 4.30697 13.8125 4.69629C14.6927 5.08561 15.4671 5.62728 16.1357 6.32129C16.8044 7.0153 17.3206 7.82357 17.6846 8.74609C18.057 9.66016 18.2432 10.6292 18.2432 11.6533ZM5.76367 11.6533C5.76367 12.415 5.89909 13.1302 6.16992 13.7988C6.44076 14.4674 6.82161 15.0557 7.3125 15.5635C7.79492 16.0713 8.35352 16.4691 8.98828 16.7568C9.63151 17.0361 10.3128 17.1758 11.0322 17.1758C11.7432 17.1758 12.4202 17.0361 13.0635 16.7568C13.7152 16.4691 14.2822 16.0713 14.7646 15.5635C15.2555 15.0557 15.6364 14.4674 15.9072 13.7988C16.1781 13.1302 16.3135 12.415 16.3135 11.6533C16.3135 10.8916 16.1781 10.1764 15.9072 9.50781C15.6364 8.83919 15.2555 8.25098 14.7646 7.74316C14.2822 7.23535 13.7152 6.8418 13.0635 6.5625C12.4202 6.27474 11.7432 6.13086 11.0322 6.13086C10.3128 6.13086 9.63151 6.27474 8.98828 6.5625C8.35352 6.8418 7.79492 7.23535 7.3125 7.74316C6.82161 8.25098 6.44076 8.83919 6.16992 9.50781C5.89909 10.1764 5.76367 10.8916 5.76367 11.6533ZM14.7393 11.6533C14.7393 12.1865 14.6462 12.6859 14.46 13.1514C14.2738 13.6169 14.0072 14.0316 13.6602 14.3955C13.3132 14.751 12.9111 15.0303 12.4541 15.2334C12.0055 15.4365 11.5316 15.5381 11.0322 15.5381C10.5413 15.5381 10.0716 15.4365 9.62305 15.2334C9.17448 15.0303 8.77246 14.751 8.41699 14.3955C8.07845 14.0485 7.81185 13.638 7.61719 13.1641C7.43099 12.6901 7.33789 12.1865 7.33789 11.6533C7.33789 11.1286 7.43099 10.6335 7.61719 10.168C7.80339 9.70247 8.06999 9.28353 8.41699 8.91113C8.74707 8.55566 9.14062 8.27637 9.59766 8.07324C10.0547 7.87012 10.5329 7.76855 11.0322 7.76855C11.5316 7.76855 12.0013 7.87012 12.4414 8.07324C12.89 8.2679 13.2962 8.5472 13.6602 8.91113C13.9987 9.25814 14.2611 9.66862 14.4473 10.1426C14.6419 10.6165 14.7393 11.1201 14.7393 11.6533ZM9.12793 11.6533C9.12793 12.1865 9.31836 12.6562 9.69922 13.0625C10.0632 13.4518 10.5075 13.6465 11.0322 13.6465C11.557 13.6465 12.0055 13.4518 12.3779 13.0625C12.7588 12.6647 12.9492 12.195 12.9492 11.6533C12.9492 11.1201 12.7588 10.6504 12.3779 10.2441C12.2087 10.0579 12.0055 9.91406 11.7686 9.8125C11.54 9.71094 11.2946 9.66016 11.0322 9.66016C10.516 9.66016 10.0716 9.85482 9.69922 10.2441C9.31836 10.6419 9.12793 11.1117 9.12793 11.6533Z" fill="white"/>
<path d="M32.0645 18.6504V4.64648H38.334C41.0977 4.64648 42.8652 6.0918 42.8652 8.43555C42.8652 10.4473 41.8008 11.7461 39.9746 12.2637C41.5664 12.5273 42.4453 13.4746 42.6992 15.3301L43.1582 18.6504H40.0332L39.7012 15.8477C39.5156 14.2754 38.832 13.6211 37.1914 13.6211H36C35.2871 13.6211 34.7305 13.0547 34.7305 12.3809C34.7305 11.6875 35.2871 11.1406 36 11.1406H37.3672C38.8516 11.1406 39.8281 10.3691 39.8281 9.02148C39.8281 7.78125 39.0371 7.19531 37.7285 7.19531H35.9805C35.6289 7.19531 35.4434 6.99023 35.4434 6.64844V6.57031C35.4434 5.96484 34.9746 5.48633 34.3789 5.48633C33.7637 5.48633 33.2852 5.96484 33.2852 6.56055C33.2852 7.14648 33.7539 7.64453 34.3887 7.64453H34.5938C34.9551 7.64453 35.1309 7.83008 35.1309 8.19141V10.6035C35.1309 10.9746 34.9551 11.1504 34.5938 11.1504H34.3984C33.7246 11.1504 33.1973 11.6582 33.1973 12.3418C33.1973 13.0059 33.7246 13.5332 34.3984 13.5332H34.5938C34.9551 13.5332 35.1309 13.7188 35.1309 14.0898V18.6504H32.0645Z" fill="#1FC9D0"/>
<path d="M44.0469 18.6504L48.7246 4.64648H52.9531L57.543 18.6504H54.3105L53.3145 15.5059C53.2168 15.1836 53.334 14.9395 53.6172 14.8516L54.0078 14.7148C54.6426 14.5098 54.9746 13.8359 54.7402 13.1816C54.5156 12.5371 53.9492 12.3223 53.3242 12.4883L52.9824 12.5762C52.6602 12.6738 52.4355 12.5273 52.3477 12.2148L50.7949 7.18555L49.2227 12.2148C49.1348 12.5176 48.9102 12.6836 48.5684 12.5859L48.2852 12.5078C47.6211 12.3223 46.9961 12.6055 46.791 13.2695C46.6055 13.9141 46.9766 14.5293 47.6406 14.7441L47.9922 14.8711C48.2656 14.959 48.3438 15.1934 48.2461 15.5059L47.2305 18.6504H44.0469ZM48.3145 14.0117C48.3145 13.2793 48.8809 12.7422 49.6328 12.7422H52.0156C52.748 12.7422 53.3242 13.2793 53.3242 14.0117C53.3242 14.7344 52.748 15.2422 52.0156 15.2422H49.6328C48.8809 15.2422 48.3145 14.7344 48.3145 14.0117Z" fill="#1FC9D0"/>
<path d="M59.1152 18.6504V4.64648H64.0957C68.334 4.64648 70.6777 7.40039 70.6777 11.4727C70.6777 15.7793 68.0996 18.6504 63.959 18.6504H59.1152ZM60.0918 16.6582C60.0918 17.3223 60.6094 17.8301 61.2637 17.8301C61.9082 17.8301 62.4258 17.3223 62.4258 16.6582V16.502C62.4258 16.2578 62.582 16.1016 62.8066 16.1016H63.7832C66.4785 16.1016 67.5137 13.8945 67.5137 11.4727C67.5137 8.89453 66.3711 7.19531 63.7637 7.19531H62.8164C62.5918 7.19531 62.4258 7.03906 62.4258 6.77539V6.66797C62.4258 6.00391 61.9082 5.49609 61.2637 5.49609C60.6094 5.49609 60.0918 6.00391 60.0918 6.66797C60.0918 7.3125 60.6094 7.83008 61.2637 7.83008H61.791C62.0156 7.83008 62.1816 7.98633 62.1816 8.2207V15.1055C62.1816 15.3398 62.0156 15.4961 61.7812 15.4961H61.2637C60.6094 15.4961 60.0918 16.0137 60.0918 16.6582Z" fill="#1FC9D0"/>
<path d="M71.8203 18.6504L77.5527 4.64648H80.6777L74.9453 18.6504H71.8203ZM75.3652 11.5215C75.3652 12.0391 75.7949 12.4688 76.3223 12.4688C76.8398 12.4688 77.2695 12.0391 77.2695 11.5215C77.2695 10.9941 76.8398 10.5645 76.3223 10.5645C75.7949 10.5645 75.3652 10.9941 75.3652 11.5215Z" fill="#1FC9D0"/>
<path d="M80.2578 18.6504L84.9355 4.64648H89.1641L93.7539 18.6504H90.5215L89.5254 15.5059C89.4277 15.1836 89.5449 14.9395 89.8281 14.8516L90.2188 14.7148C90.8535 14.5098 91.1855 13.8359 90.9512 13.1816C90.7266 12.5371 90.1602 12.3223 89.5352 12.4883L89.1934 12.5762C88.8711 12.6738 88.6465 12.5273 88.5586 12.2148L87.0059 7.18555L85.4336 12.2148C85.3457 12.5176 85.1211 12.6836 84.7793 12.5859L84.4961 12.5078C83.832 12.3223 83.207 12.6055 83.002 13.2695C82.8164 13.9141 83.1875 14.5293 83.8516 14.7441L84.2031 14.8711C84.4766 14.959 84.5547 15.1934 84.457 15.5059L83.4414 18.6504H80.2578ZM84.5254 14.0117C84.5254 13.2793 85.0918 12.7422 85.8438 12.7422H88.2266C88.959 12.7422 89.5352 13.2793 89.5352 14.0117C89.5352 14.7344 88.959 15.2422 88.2266 15.2422H85.8438C85.0918 15.2422 84.5254 14.7344 84.5254 14.0117Z" fill="#1FC9D0"/>
<path d="M95.3262 18.6504V4.64648H101.596C104.359 4.64648 106.127 6.0918 106.127 8.43555C106.127 10.4473 105.062 11.7461 103.236 12.2637C104.828 12.5273 105.707 13.4746 105.961 15.3301L106.42 18.6504H103.295L102.963 15.8477C102.777 14.2754 102.094 13.6211 100.453 13.6211H99.2617C98.5488 13.6211 97.9922 13.0547 97.9922 12.3809C97.9922 11.6875 98.5488 11.1406 99.2617 11.1406H100.629C102.113 11.1406 103.09 10.3691 103.09 9.02148C103.09 7.78125 102.299 7.19531 100.99 7.19531H99.2422C98.8906 7.19531 98.7051 6.99023 98.7051 6.64844V6.57031C98.7051 5.96484 98.2363 5.48633 97.6406 5.48633C97.0254 5.48633 96.5469 5.96484 96.5469 6.56055C96.5469 7.14648 97.0156 7.64453 97.6504 7.64453H97.8555C98.2168 7.64453 98.3926 7.83008 98.3926 8.19141V10.6035C98.3926 10.9746 98.2168 11.1504 97.8555 11.1504H97.6602C96.9863 11.1504 96.459 11.6582 96.459 12.3418C96.459 13.0059 96.9863 13.5332 97.6602 13.5332H97.8555C98.2168 13.5332 98.3926 13.7188 98.3926 14.0898V18.6504H95.3262Z" fill="#1FC9D0"/>
<path d="M107.523 18.6504L113.256 4.64648H116.381L110.648 18.6504H107.523ZM111.068 11.5215C111.068 12.0391 111.498 12.4688 112.025 12.4688C112.543 12.4688 112.973 12.0391 112.973 11.5215C112.973 10.9941 112.543 10.5645 112.025 10.5645C111.498 10.5645 111.068 10.9941 111.068 11.5215Z" fill="#1FC9D0"/>
<path d="M121.381 8.64062C121.381 7.77148 122.055 7.09766 122.914 7.09766C123.773 7.09766 124.438 7.77148 124.438 8.64062V18.6504H121.381V8.64062ZM117.055 7.46875V4.64648H128.764V7.46875H124.877C124.545 7.46875 124.408 7.3125 124.408 7.03906V6.99023C124.408 6.15039 123.754 5.50586 122.904 5.50586C122.055 5.50586 121.4 6.15039 121.4 6.99023V7.03906C121.4 7.3125 121.273 7.46875 120.941 7.46875H117.055Z" fill="#1FC9D0"/>
<path d="M130.365 18.6504V4.64648H140.033V7.22461H133.988C133.773 7.22461 133.627 7.08789 133.627 6.88281V6.57031C133.627 5.93555 133.119 5.4375 132.494 5.4375C131.869 5.4375 131.361 5.93555 131.361 6.57031C131.361 7.19531 131.869 7.69336 132.494 7.69336H132.992C133.236 7.69336 133.432 7.86914 133.432 8.11328V9.99805C133.432 10.2617 133.236 10.4277 132.992 10.4277H132.494C131.859 10.4277 131.342 10.9453 131.342 11.5801C131.342 12.1855 131.859 12.6934 132.494 12.6934H132.992C133.236 12.6934 133.432 12.8691 133.432 13.1035V15.1641C133.432 15.418 133.236 15.584 132.992 15.584H132.494C131.869 15.584 131.361 16.0918 131.361 16.7168C131.361 17.3516 131.869 17.8496 132.494 17.8496C133.119 17.8496 133.627 17.3516 133.627 16.7168V16.4043C133.627 16.1992 133.773 16.0625 133.979 16.0625H140.043V18.6504H130.365ZM133.178 11.5605C133.178 10.8379 133.715 10.3203 134.447 10.3203H139.486V12.8008H134.447C133.715 12.8008 133.178 12.2539 133.178 11.5605Z" fill="#1FC9D0"/>
<path d="M147.406 18.9336C144.037 18.9336 141.771 17.2637 141.723 14.2559H144.867C144.926 15.6035 145.883 16.4922 147.455 16.4922C148.715 16.4922 149.584 15.877 149.584 14.793C149.584 13.9434 149.115 13.4941 147.875 13.2207L145.932 12.791C143.217 12.1953 141.957 10.9844 141.957 8.69922C141.957 6.18945 144.066 4.37305 147.279 4.37305C150.521 4.37305 152.367 6.20898 152.484 8.60156H149.369C149.33 7.55664 148.598 6.77539 147.191 6.77539C146 6.77539 145.092 7.42969 145.092 8.43555C145.092 9.2168 145.609 9.70508 146.918 9.98828L148.988 10.4375C151.117 10.8965 152.709 11.9805 152.709 14.4023C152.709 17.2441 150.688 18.9336 147.406 18.9336ZM146.244 11.5801C146.244 12.2148 146.752 12.7227 147.377 12.7227C148.012 12.7227 148.51 12.2148 148.51 11.5801C148.51 10.9453 148.002 10.4375 147.377 10.4375C146.752 10.4375 146.244 10.9355 146.244 11.5801Z" fill="#1FC9D0"/>
</g>
<defs>
<clipPath id="clip0_1_2">
<rect width="153" height="23" fill="white"/>
</clipPath>
</defs>
</svg>
