<svg width="153" height="22" viewBox="0 0 153 22" fill="none" xmlns="http://www.w3.org/2000/svg">
<path d="M0 10.9307C0 8.91634 0.495117 7.07552 1.48535 5.4082C2.48405 3.73242 3.82552 2.41211 5.50977 1.44727C7.20247 0.482422 9.04329 0 11.0322 0C13.0296 0 14.8704 0.486654 16.5547 1.45996C18.2474 2.43327 19.5889 3.75781 20.5791 5.43359C21.5693 7.10091 22.0645 8.93327 22.0645 10.9307C22.0645 12.9365 21.5651 14.7773 20.5664 16.4531C19.5677 18.1204 18.222 19.4408 16.5293 20.4141C14.8451 21.3789 13.0127 21.8613 11.0322 21.8613C9.03483 21.8613 7.18978 21.3789 5.49707 20.4141C3.81283 19.4408 2.47559 18.1204 1.48535 16.4531C0.495117 14.7773 0 12.9365 0 10.9307ZM2.13281 10.9307C2.13281 12.5387 2.5306 14.0283 3.32617 15.3994C4.13021 16.762 5.21354 17.8454 6.57617 18.6494C7.94727 19.4535 9.43262 19.8555 11.0322 19.8555C12.6403 19.8555 14.1257 19.4577 15.4883 18.6621C16.8509 17.8581 17.93 16.7747 18.7256 15.4121C19.5296 14.0495 19.9316 12.5557 19.9316 10.9307C19.9316 9.30566 19.5296 7.81185 18.7256 6.44922C17.93 5.07812 16.8509 3.99479 15.4883 3.19922C14.1257 2.40365 12.6403 2.00586 11.0322 2.00586C9.41569 2.00586 7.92611 2.40788 6.56348 3.21191C5.20085 4.01595 4.12174 5.10352 3.32617 6.47461C2.5306 7.83724 2.13281 9.32259 2.13281 10.9307ZM18.2432 10.9307C18.2432 11.9548 18.057 12.9238 17.6846 13.8379C17.3206 14.752 16.8044 15.5602 16.1357 16.2627C15.4756 16.9567 14.7012 17.4984 13.8125 17.8877C12.9323 18.277 12.0055 18.4717 11.0322 18.4717C10.0589 18.4717 9.13216 18.277 8.25195 17.8877C7.38021 17.4984 6.61003 16.9567 5.94141 16.2627C5.27279 15.5687 4.75228 14.7646 4.37988 13.8506C4.01595 12.9281 3.83398 11.9548 3.83398 10.9307C3.83398 9.91504 4.02018 8.9502 4.39258 8.03613C4.76497 7.11361 5.28125 6.30111 5.94141 5.59863C6.60156 4.90462 7.37174 4.36296 8.25195 3.97363C9.13216 3.58431 10.0589 3.38965 11.0322 3.38965C12.0055 3.38965 12.9323 3.58431 13.8125 3.97363C14.6927 4.36296 15.4671 4.90462 16.1357 5.59863C16.8044 6.29264 17.3206 7.10091 17.6846 8.02344C18.057 8.9375 18.2432 9.90658 18.2432 10.9307ZM5.76367 10.9307C5.76367 11.6924 5.89909 12.4076 6.16992 13.0762C6.44076 13.7448 6.82161 14.333 7.3125 14.8408C7.79492 15.3486 8.35352 15.7464 8.98828 16.0342C9.63151 16.3135 10.3128 16.4531 11.0322 16.4531C11.7432 16.4531 12.4202 16.3135 13.0635 16.0342C13.7152 15.7464 14.2822 15.3486 14.7646 14.8408C15.2555 14.333 15.6364 13.7448 15.9072 13.0762C16.1781 12.4076 16.3135 11.6924 16.3135 10.9307C16.3135 10.1689 16.1781 9.45378 15.9072 8.78516C15.6364 8.11654 15.2555 7.52832 14.7646 7.02051C14.2822 6.5127 13.7152 6.11914 13.0635 5.83984C12.4202 5.55208 11.7432 5.4082 11.0322 5.4082C10.3128 5.4082 9.63151 5.55208 8.98828 5.83984C8.35352 6.11914 7.79492 6.5127 7.3125 7.02051C6.82161 7.52832 6.44076 8.11654 6.16992 8.78516C5.89909 9.45378 5.76367 10.1689 5.76367 10.9307ZM14.7393 10.9307C14.7393 11.4639 14.6462 11.9632 14.46 12.4287C14.2738 12.8942 14.0072 13.3089 13.6602 13.6729C13.3132 14.0283 12.9111 14.3076 12.4541 14.5107C12.0055 14.7139 11.5316 14.8154 11.0322 14.8154C10.5413 14.8154 10.0716 14.7139 9.62305 14.5107C9.17448 14.3076 8.77246 14.0283 8.41699 13.6729C8.07845 13.3258 7.81185 12.9154 7.61719 12.4414C7.43099 11.9674 7.33789 11.4639 7.33789 10.9307C7.33789 10.4059 7.43099 9.91081 7.61719 9.44531C7.80339 8.97982 8.06999 8.56087 8.41699 8.18848C8.74707 7.83301 9.14062 7.55371 9.59766 7.35059C10.0547 7.14746 10.5329 7.0459 11.0322 7.0459C11.5316 7.0459 12.0013 7.14746 12.4414 7.35059C12.89 7.54525 13.2962 7.82454 13.6602 8.18848C13.9987 8.53548 14.2611 8.94596 14.4473 9.41992C14.6419 9.89388 14.7393 10.3975 14.7393 10.9307ZM9.12793 10.9307C9.12793 11.4639 9.31836 11.9336 9.69922 12.3398C10.0632 12.7292 10.5075 12.9238 11.0322 12.9238C11.557 12.9238 12.0055 12.7292 12.3779 12.3398C12.7588 11.9421 12.9492 11.4723 12.9492 10.9307C12.9492 10.3975 12.7588 9.92773 12.3779 9.52148C12.2087 9.33529 12.0055 9.19141 11.7686 9.08984C11.54 8.98828 11.2946 8.9375 11.0322 8.9375C10.516 8.9375 10.0716 9.13216 9.69922 9.52148C9.31836 9.91927 9.12793 10.389 9.12793 10.9307Z" fill="#6232FF"/>
<path d="M32.0645 17.9277V3.92383H38.334C41.0977 3.92383 42.8652 5.36914 42.8652 7.71289C42.8652 9.72461 41.8008 11.0234 39.9746 11.541C41.5664 11.8047 42.4453 12.752 42.6992 14.6074L43.1582 17.9277H40.0332L39.7012 15.125C39.5156 13.5527 38.832 12.8984 37.1914 12.8984H36C35.2871 12.8984 34.7305 12.332 34.7305 11.6582C34.7305 10.9648 35.2871 10.418 36 10.418H37.3672C38.8516 10.418 39.8281 9.64648 39.8281 8.29883C39.8281 7.05859 39.0371 6.47266 37.7285 6.47266H35.9805C35.6289 6.47266 35.4434 6.26758 35.4434 5.92578V5.84766C35.4434 5.24219 34.9746 4.76367 34.3789 4.76367C33.7637 4.76367 33.2852 5.24219 33.2852 5.83789C33.2852 6.42383 33.7539 6.92188 34.3887 6.92188H34.5938C34.9551 6.92188 35.1309 7.10742 35.1309 7.46875V9.88086C35.1309 10.252 34.9551 10.4277 34.5938 10.4277H34.3984C33.7246 10.4277 33.1973 10.9355 33.1973 11.6191C33.1973 12.2832 33.7246 12.8105 34.3984 12.8105H34.5938C34.9551 12.8105 35.1309 12.9961 35.1309 13.3672V17.9277H32.0645Z" fill="black"/>
<path d="M44.0469 17.9277L48.7246 3.92383H52.9531L57.543 17.9277H54.3105L53.3145 14.7832C53.2168 14.4609 53.334 14.2168 53.6172 14.1289L54.0078 13.9922C54.6426 13.7871 54.9746 13.1133 54.7402 12.459C54.5156 11.8145 53.9492 11.5996 53.3242 11.7656L52.9824 11.8535C52.6602 11.9512 52.4355 11.8047 52.3477 11.4922L50.7949 6.46289L49.2227 11.4922C49.1348 11.7949 48.9102 11.9609 48.5684 11.8633L48.2852 11.7852C47.6211 11.5996 46.9961 11.8828 46.791 12.5469C46.6055 13.1914 46.9766 13.8066 47.6406 14.0215L47.9922 14.1484C48.2656 14.2363 48.3438 14.4707 48.2461 14.7832L47.2305 17.9277H44.0469ZM48.3145 13.2891C48.3145 12.5566 48.8809 12.0195 49.6328 12.0195H52.0156C52.748 12.0195 53.3242 12.5566 53.3242 13.2891C53.3242 14.0117 52.748 14.5195 52.0156 14.5195H49.6328C48.8809 14.5195 48.3145 14.0117 48.3145 13.2891Z" fill="black"/>
<path d="M59.1152 17.9277V3.92383H64.0957C68.334 3.92383 70.6777 6.67773 70.6777 10.75C70.6777 15.0566 68.0996 17.9277 63.959 17.9277H59.1152ZM60.0918 15.9355C60.0918 16.5996 60.6094 17.1074 61.2637 17.1074C61.9082 17.1074 62.4258 16.5996 62.4258 15.9355V15.7793C62.4258 15.5352 62.582 15.3789 62.8066 15.3789H63.7832C66.4785 15.3789 67.5137 13.1719 67.5137 10.75C67.5137 8.17188 66.3711 6.47266 63.7637 6.47266H62.8164C62.5918 6.47266 62.4258 6.31641 62.4258 6.05273V5.94531C62.4258 5.28125 61.9082 4.77344 61.2637 4.77344C60.6094 4.77344 60.0918 5.28125 60.0918 5.94531C60.0918 6.58984 60.6094 7.10742 61.2637 7.10742H61.791C62.0156 7.10742 62.1816 7.26367 62.1816 7.49805V14.3828C62.1816 14.6172 62.0156 14.7734 61.7812 14.7734H61.2637C60.6094 14.7734 60.0918 15.291 60.0918 15.9355Z" fill="black"/>
<path d="M71.8203 17.9277L77.5527 3.92383H80.6777L74.9453 17.9277H71.8203ZM75.3652 10.7988C75.3652 11.3164 75.7949 11.7461 76.3223 11.7461C76.8398 11.7461 77.2695 11.3164 77.2695 10.7988C77.2695 10.2715 76.8398 9.8418 76.3223 9.8418C75.7949 9.8418 75.3652 10.2715 75.3652 10.7988Z" fill="black"/>
<path d="M80.2578 17.9277L84.9355 3.92383H89.1641L93.7539 17.9277H90.5215L89.5254 14.7832C89.4277 14.4609 89.5449 14.2168 89.8281 14.1289L90.2188 13.9922C90.8535 13.7871 91.1855 13.1133 90.9512 12.459C90.7266 11.8145 90.1602 11.5996 89.5352 11.7656L89.1934 11.8535C88.8711 11.9512 88.6465 11.8047 88.5586 11.4922L87.0059 6.46289L85.4336 11.4922C85.3457 11.7949 85.1211 11.9609 84.7793 11.8633L84.4961 11.7852C83.832 11.5996 83.207 11.8828 83.002 12.5469C82.8164 13.1914 83.1875 13.8066 83.8516 14.0215L84.2031 14.1484C84.4766 14.2363 84.5547 14.4707 84.457 14.7832L83.4414 17.9277H80.2578ZM84.5254 13.2891C84.5254 12.5566 85.0918 12.0195 85.8438 12.0195H88.2266C88.959 12.0195 89.5352 12.5566 89.5352 13.2891C89.5352 14.0117 88.959 14.5195 88.2266 14.5195H85.8438C85.0918 14.5195 84.5254 14.0117 84.5254 13.2891Z" fill="black"/>
<path d="M95.3262 17.9277V3.92383H101.596C104.359 3.92383 106.127 5.36914 106.127 7.71289C106.127 9.72461 105.062 11.0234 103.236 11.541C104.828 11.8047 105.707 12.752 105.961 14.6074L106.42 17.9277H103.295L102.963 15.125C102.777 13.5527 102.094 12.8984 100.453 12.8984H99.2617C98.5488 12.8984 97.9922 12.332 97.9922 11.6582C97.9922 10.9648 98.5488 10.418 99.2617 10.418H100.629C102.113 10.418 103.09 9.64648 103.09 8.29883C103.09 7.05859 102.299 6.47266 100.99 6.47266H99.2422C98.8906 6.47266 98.7051 6.26758 98.7051 5.92578V5.84766C98.7051 5.24219 98.2363 4.76367 97.6406 4.76367C97.0254 4.76367 96.5469 5.24219 96.5469 5.83789C96.5469 6.42383 97.0156 6.92188 97.6504 6.92188H97.8555C98.2168 6.92188 98.3926 7.10742 98.3926 7.46875V9.88086C98.3926 10.252 98.2168 10.4277 97.8555 10.4277H97.6602C96.9863 10.4277 96.459 10.9355 96.459 11.6191C96.459 12.2832 96.9863 12.8105 97.6602 12.8105H97.8555C98.2168 12.8105 98.3926 12.9961 98.3926 13.3672V17.9277H95.3262Z" fill="black"/>
<path d="M107.523 17.9277L113.256 3.92383H116.381L110.648 17.9277H107.523ZM111.068 10.7988C111.068 11.3164 111.498 11.7461 112.025 11.7461C112.543 11.7461 112.973 11.3164 112.973 10.7988C112.973 10.2715 112.543 9.8418 112.025 9.8418C111.498 9.8418 111.068 10.2715 111.068 10.7988Z" fill="black"/>
<path d="M121.381 7.91797C121.381 7.04883 122.055 6.375 122.914 6.375C123.773 6.375 124.438 7.04883 124.438 7.91797V17.9277H121.381V7.91797ZM117.055 6.74609V3.92383H128.764V6.74609H124.877C124.545 6.74609 124.408 6.58984 124.408 6.31641V6.26758C124.408 5.42773 123.754 4.7832 122.904 4.7832C122.055 4.7832 121.4 5.42773 121.4 6.26758V6.31641C121.4 6.58984 121.273 6.74609 120.941 6.74609H117.055Z" fill="black"/>
<path d="M130.365 17.9277V3.92383H140.033V6.50195H133.988C133.773 6.50195 133.627 6.36523 133.627 6.16016V5.84766C133.627 5.21289 133.119 4.71484 132.494 4.71484C131.869 4.71484 131.361 5.21289 131.361 5.84766C131.361 6.47266 131.869 6.9707 132.494 6.9707H132.992C133.236 6.9707 133.432 7.14648 133.432 7.39062V9.27539C133.432 9.53906 133.236 9.70508 132.992 9.70508H132.494C131.859 9.70508 131.342 10.2227 131.342 10.8574C131.342 11.4629 131.859 11.9707 132.494 11.9707H132.992C133.236 11.9707 133.432 12.1465 133.432 12.3809V14.4414C133.432 14.6953 133.236 14.8613 132.992 14.8613H132.494C131.869 14.8613 131.361 15.3691 131.361 15.9941C131.361 16.6289 131.869 17.127 132.494 17.127C133.119 17.127 133.627 16.6289 133.627 15.9941V15.6816C133.627 15.4766 133.773 15.3398 133.979 15.3398H140.043V17.9277H130.365ZM133.178 10.8379C133.178 10.1152 133.715 9.59766 134.447 9.59766H139.486V12.0781H134.447C133.715 12.0781 133.178 11.5312 133.178 10.8379Z" fill="black"/>
<path d="M147.406 18.2109C144.037 18.2109 141.771 16.541 141.723 13.5332H144.867C144.926 14.8809 145.883 15.7695 147.455 15.7695C148.715 15.7695 149.584 15.1543 149.584 14.0703C149.584 13.2207 149.115 12.7715 147.875 12.498L145.932 12.0684C143.217 11.4727 141.957 10.2617 141.957 7.97656C141.957 5.4668 144.066 3.65039 147.279 3.65039C150.521 3.65039 152.367 5.48633 152.484 7.87891H149.369C149.33 6.83398 148.598 6.05273 147.191 6.05273C146 6.05273 145.092 6.70703 145.092 7.71289C145.092 8.49414 145.609 8.98242 146.918 9.26562L148.988 9.71484C151.117 10.1738 152.709 11.2578 152.709 13.6797C152.709 16.5215 150.688 18.2109 147.406 18.2109ZM146.244 10.8574C146.244 11.4922 146.752 12 147.377 12C148.012 12 148.51 11.4922 148.51 10.8574C148.51 10.2227 148.002 9.71484 147.377 9.71484C146.752 9.71484 146.244 10.2129 146.244 10.8574Z" fill="black"/>
</svg>
