<svg width="25" height="19" viewBox="0 0 25 19" fill="none" xmlns="http://www.w3.org/2000/svg">
<path d="M10.2694 4.24029L8.64928 1H8.75697L10.8243 5.13471L11.1007 5.6875H11.7188H14.8438H16.4618L15.7382 4.24029L14.118 1H14.2257L16.2931 5.13471L16.5695 5.6875H17.1875H20.3125H21.9305L21.2069 4.24029L19.5868 1H22.6562C23.0281 1 23.3244 1.12234 23.5986 1.40115C23.8818 1.68901 24 1.98823 24 2.34375V16.4062C24 16.7366 23.8979 17.0184 23.6562 17.2876V16.4062V7.03125V6.03125H22.6562H2.34375H1.34375V7.03125V16.4062V17.2767C1.10052 17.0082 1 16.7297 1 16.4062V2.34375C1 1.97827 1.1187 1.67558 1.39106 1.38995C1.63818 1.13076 1.93111 1 2.34375 1H3.28822L5.35557 5.13471L5.63197 5.6875H6.25H9.375H10.993L10.2694 4.24029ZM22.6562 17.4062H23.5395C23.2816 17.6445 23.0015 17.75 22.6562 17.75H2.34375C2.02032 17.75 1.74184 17.6495 1.47334 17.4062H2.34375H22.6562Z" fill="#64113F" stroke="#64113F"/>
</svg>
