<svg width="14" height="10" viewBox="0 0 14 10" fill="none" xmlns="http://www.w3.org/2000/svg">
<path d="M5.88471 2.12014L5.07464 0.5H5.12848L6.16216 2.56736L6.30036 2.84375H6.60938H8.17188H8.98089L8.61909 2.12014L7.80902 0.5H7.86286L8.89654 2.56736L9.03473 2.84375H9.34375H10.9062H11.7153L11.3535 2.12014L10.5434 0.5H12.0781C12.264 0.5 12.4122 0.561171 12.5493 0.700575C12.6909 0.844504 12.75 0.994114 12.75 1.17188V8.20312C12.75 8.36832 12.699 8.5092 12.5781 8.6438V8.20312V3.51562V3.01562H12.0781H1.92188H1.42188V3.51562V8.20312V8.63833C1.30026 8.50408 1.25 8.36484 1.25 8.20312V1.17188C1.25 0.989134 1.30935 0.837791 1.44553 0.694973C1.56909 0.565381 1.71556 0.5 1.92188 0.5H2.39411L3.42779 2.56736L3.56598 2.84375H3.875H5.4375H6.24652L5.88471 2.12014ZM12.0781 8.70312H12.5197C12.3908 8.82226 12.2508 8.875 12.0781 8.875H1.92188C1.76016 8.875 1.62092 8.82474 1.48667 8.70312H1.92188H12.0781Z" fill="#EFECF3" stroke="#EFECF3"/>
</svg>
