<svg width="60" height="60" viewBox="0 0 60 60" fill="none" xmlns="http://www.w3.org/2000/svg">
<rect width="60" height="60" rx="15" fill="#64113F" fill-opacity="0.2"/>
<path d="M27.7694 24.2403L26.1493 21H26.257L28.3243 25.1347L28.6007 25.6875H29.2188H32.3438H33.9618L33.2382 24.2403L31.618 21H31.7257L33.7931 25.1347L34.0695 25.6875H34.6875H37.8125H39.4305L38.7069 24.2403L37.0868 21H40.1562C40.5281 21 40.8244 21.1223 41.0986 21.4012C41.3818 21.689 41.5 21.9882 41.5 22.3438V36.4062C41.5 36.7366 41.3979 37.0184 41.1562 37.2876V36.4062V27.0312V26.0312H40.1562H19.8438H18.8438V27.0312V36.4062V37.2767C18.6005 37.0082 18.5 36.7297 18.5 36.4062V22.3438C18.5 21.9783 18.6187 21.6756 18.8911 21.3899C19.1382 21.1308 19.4311 21 19.8438 21H20.7882L22.8556 25.1347L23.132 25.6875H23.75H26.875H28.493L27.7694 24.2403ZM40.1562 37.4062H41.0395C40.7816 37.6445 40.5015 37.75 40.1562 37.75H19.8438C19.5203 37.75 19.2418 37.6495 18.9733 37.4062H19.8438H40.1562Z" fill="#64113F" stroke="#64113F"/>
</svg>
