<svg width="13" height="10" viewBox="0 0 13 10" fill="none" xmlns="http://www.w3.org/2000/svg">
<path d="M0.375 8.0625V1.9375C0.375 1.58507 0.503515 1.27821 0.760547 1.01693C1.01758 0.755642 1.32656 0.625 1.6875 0.625H11.3125C11.6734 0.625 11.9824 0.755642 12.2395 1.01693C12.4965 1.27821 12.625 1.58507 12.625 1.9375V8.0625C12.625 8.42344 12.4965 8.73242 12.2395 8.98945C11.9824 9.24649 11.6734 9.375 11.3125 9.375H1.6875C1.32656 9.375 1.01758 9.24649 0.760547 8.98945C0.503515 8.73242 0.375 8.42344 0.375 8.0625ZM5.33333 4.34375H11.3125V1.9375H5.33333V4.34375ZM8.97917 8.0625H11.3125V5.65625H8.97917V8.0625ZM5.33333 8.0625H7.66667V5.65625H5.33333V8.0625ZM1.6875 8.0625H4.02083V1.9375H1.6875V8.0625Z" fill="#EFECF3"/>
</svg>
