<svg width="60" height="60" viewBox="0 0 60 60" fill="none" xmlns="http://www.w3.org/2000/svg">
<rect width="60" height="60" rx="15" fill="#17A398" fill-opacity="0.2"/>
<path d="M18.75 36.125V23.875C18.75 23.1701 19.007 22.5564 19.5211 22.0339C20.0352 21.5113 20.6531 21.25 21.375 21.25H40.625C41.3469 21.25 41.9648 21.5113 42.4789 22.0339C42.993 22.5564 43.25 23.1701 43.25 23.875V36.125C43.25 36.8469 42.993 37.4648 42.4789 37.9789C41.9648 38.493 41.3469 38.75 40.625 38.75H21.375C20.6531 38.75 20.0352 38.493 19.5211 37.9789C19.007 37.4648 18.75 36.8469 18.75 36.125ZM28.6667 28.6875H40.625V23.875H28.6667V28.6875ZM35.9583 36.125H40.625V31.3125H35.9583V36.125ZM28.6667 36.125H33.3333V31.3125H28.6667V36.125ZM21.375 36.125H26.0417V23.875H21.375V36.125Z" fill="#17A398"/>
</svg>
