<svg width="25" height="18" viewBox="0 0 25 18" fill="none" xmlns="http://www.w3.org/2000/svg">
<path d="M0 15.1786V2.67857C0 1.95933 0.262277 1.33309 0.78683 0.799851C1.31138 0.266617 1.94196 0 2.67857 0H22.3214C23.058 0 23.6886 0.266617 24.2132 0.799851C24.7377 1.33309 25 1.95933 25 2.67857V15.1786C25 15.9152 24.7377 16.5458 24.2132 17.0703C23.6886 17.5949 23.058 17.8571 22.3214 17.8571H2.67857C1.94196 17.8571 1.31138 17.5949 0.78683 17.0703C0.262277 16.5458 0 15.9152 0 15.1786ZM10.119 7.58929H22.3214V2.67857H10.119V7.58929ZM17.5595 15.1786H22.3214V10.2679H17.5595V15.1786ZM10.119 15.1786H14.881V10.2679H10.119V15.1786ZM2.67857 15.1786H7.44048V2.67857H2.67857V15.1786Z" fill="#17A398"/>
</svg>
