<svg width="60" height="60" viewBox="0 0 60 60" fill="none" xmlns="http://www.w3.org/2000/svg">
<rect width="60" height="60" rx="15" fill="#F3CE3A" fill-opacity="0.2"/>
<path fill-rule="evenodd" clip-rule="evenodd" d="M38.8825 23.5368C39.2635 23.3464 39.6869 23.2565 40.1125 23.2757C40.538 23.2949 40.9516 23.4225 41.314 23.6464C41.6764 23.8703 41.9756 24.183 42.1831 24.555C42.3907 24.927 42.4998 25.3459 42.5 25.7718V34.2275C42.4998 34.6535 42.3907 35.073 42.1831 35.445C41.9756 35.817 41.6764 36.1298 41.314 36.3537C40.9516 36.5776 40.538 36.7052 40.1125 36.7243C39.6869 36.7435 39.2635 36.6536 38.8825 36.4632L33.1911 33.6181C32.7675 33.4064 32.5 32.9735 32.5 32.5V27.5C32.5 27.0265 32.7675 26.5937 33.1911 26.3819L38.8825 23.5368ZM35 28.2726V31.7274L40 34.2269V25.7732L35 28.2726Z" fill="#F3CE3A"/>
<path fill-rule="evenodd" clip-rule="evenodd" d="M21.25 23.75C20.5596 23.75 20 24.3096 20 25V35C20 35.6904 20.5596 36.25 21.25 36.25H31.25C31.9404 36.25 32.5 35.6904 32.5 35V25C32.5 24.3096 31.9404 23.75 31.25 23.75H21.25ZM17.5 25C17.5 22.9289 19.1789 21.25 21.25 21.25H31.25C33.3211 21.25 35 22.9289 35 25V35C35 37.0711 33.3211 38.75 31.25 38.75H21.25C19.1789 38.75 17.5 37.0711 17.5 35V25Z" fill="#F3CE3A"/>
</svg>
