<svg width="25" height="18" viewBox="0 0 25 18" fill="none" xmlns="http://www.w3.org/2000/svg">
<path fill-rule="evenodd" clip-rule="evenodd" d="M21.3825 2.28685C21.7635 2.09644 22.1869 2.00655 22.6125 2.02571C23.038 2.04488 23.4516 2.17247 23.814 2.39636C24.1764 2.62026 24.4756 2.93304 24.6831 3.30503C24.8907 3.67702 24.9998 4.09587 25 4.52185V12.9775C24.9998 13.4035 24.8907 13.823 24.6831 14.195C24.4756 14.567 24.1764 14.8798 23.814 15.1037C23.4516 15.3276 23.038 15.4552 22.6125 15.4743C22.1869 15.4935 21.7635 15.4036 21.3825 15.2132L15.6911 12.3681C15.2675 12.1564 15 11.7235 15 11.25V6.25002C15 5.77651 15.2675 5.34365 15.6911 5.13193L21.3825 2.28685ZM17.5 7.02263V10.4774L22.5 12.9769V4.52318L17.5 7.02263Z" fill="#F3CE3A"/>
<path fill-rule="evenodd" clip-rule="evenodd" d="M3.75 2.5C3.05964 2.5 2.5 3.05964 2.5 3.75V13.75C2.5 14.4404 3.05964 15 3.75 15H13.75C14.4404 15 15 14.4404 15 13.75V3.75C15 3.05964 14.4404 2.5 13.75 2.5H3.75ZM0 3.75C0 1.67893 1.67893 0 3.75 0H13.75C15.8211 0 17.5 1.67893 17.5 3.75V13.75C17.5 15.8211 15.8211 17.5 13.75 17.5H3.75C1.67893 17.5 0 15.8211 0 13.75V3.75Z" fill="#F3CE3A"/>
</svg>
