<svg width="26" height="20" viewBox="0 0 26 20" fill="none" xmlns="http://www.w3.org/2000/svg">
<path d="M15.3571 7.08333V4.82143C15.9722 4.62302 16.6071 4.47917 17.2619 4.38988C17.9167 4.3006 18.5913 4.25595 19.2857 4.25595C19.7421 4.25595 20.2034 4.28075 20.6696 4.33036C21.1359 4.37996 21.627 4.45437 22.1429 4.55357V6.75595C21.5476 6.61706 21.0218 6.51786 20.5655 6.45833C20.1091 6.39881 19.6825 6.36905 19.2857 6.36905C18.6111 6.36905 17.9464 6.42857 17.2917 6.54762C16.6369 6.66667 15.9921 6.84524 15.3571 7.08333ZM15.3571 14.1071V11.8452C15.9127 11.6667 16.5079 11.5228 17.1429 11.4137C17.7778 11.3046 18.4921 11.25 19.2857 11.25C19.8214 11.25 20.3224 11.2798 20.7887 11.3393C21.255 11.3988 21.7064 11.4782 22.1429 11.5774V13.7798C21.5476 13.6409 21.0218 13.5417 20.5655 13.4821C20.1091 13.4226 19.6825 13.3929 19.2857 13.3929C18.6111 13.3929 17.9464 13.4524 17.2917 13.5714C16.6369 13.6905 15.9921 13.869 15.3571 14.1071ZM15.3571 10.5952V8.33333C15.9921 8.13492 16.6419 7.98611 17.3065 7.88691C17.9712 7.7877 18.631 7.7381 19.2857 7.7381C19.8214 7.7381 20.3224 7.76786 20.7887 7.82738C21.255 7.88691 21.7064 7.96627 22.1429 8.06548V10.2679C21.627 10.129 21.1359 10.0298 20.6696 9.97024C20.2034 9.91072 19.7421 9.88095 19.2857 9.88095C18.6508 9.88095 18.0109 9.94048 17.3661 10.0595C16.7212 10.1786 16.0516 10.3571 15.3571 10.5952ZM6.42857 15.7143C7.36111 15.7143 8.27381 15.8333 9.16667 16.0714C10.0595 16.3095 10.9325 16.6071 11.7857 16.9643V3.45238C10.9524 3.01587 10.0893 2.68849 9.19643 2.47024C8.30357 2.25198 7.38095 2.14286 6.42857 2.14286C5.69444 2.14286 4.96528 2.20734 4.24107 2.33631C3.51687 2.46528 2.81746 2.67857 2.14286 2.97619V16.4286C2.8373 16.1706 3.54167 15.9871 4.25595 15.878C4.97024 15.7689 5.69444 15.7143 6.42857 15.7143ZM13.9286 16.9643C14.7817 16.5675 15.6548 16.2599 16.5476 16.0417C17.4405 15.8234 18.3532 15.7143 19.2857 15.7143C20.0198 15.7143 20.749 15.7589 21.4732 15.8482C22.1974 15.9375 22.8968 16.131 23.5714 16.4286V2.97619C22.877 2.71825 22.1726 2.51488 21.4583 2.36607C20.744 2.21726 20.0198 2.14286 19.2857 2.14286C18.3333 2.14286 17.4107 2.25198 16.5179 2.47024C15.625 2.68849 14.7619 3.01587 13.9286 3.45238V16.9643ZM12.8571 20C11.8849 19.3651 10.8631 18.8492 9.79167 18.4524C8.72024 18.0556 7.59921 17.8571 6.42857 17.8571C5.6746 17.8571 4.92064 17.9315 4.16667 18.0804C3.4127 18.2292 2.68849 18.4524 1.99405 18.75C1.51786 18.9484 1.06647 18.9137 0.639881 18.6458C0.213294 18.378 0 17.9861 0 17.4702V2.5C0 2.22222 0.0744048 1.96429 0.223214 1.72619C0.372024 1.4881 0.575397 1.30952 0.833333 1.19048C1.72619 0.793651 2.63889 0.496032 3.57143 0.297619C4.50397 0.0992064 5.45635 0 6.42857 0C7.55952 0 8.66568 0.133929 9.74702 0.401786C10.8284 0.669643 11.8651 1.07143 12.8571 1.60714C13.869 1.09127 14.9107 0.694444 15.9821 0.416667C17.0536 0.138889 18.1548 0 19.2857 0C20.2579 0 21.2103 0.0992064 22.1429 0.297619C23.0754 0.496032 23.9881 0.793651 24.881 1.19048C25.1389 1.30952 25.3472 1.4881 25.506 1.72619C25.6647 1.96429 25.744 2.22222 25.744 2.5V17.4702C25.744 17.9663 25.5903 18.3631 25.2827 18.6607C24.9752 18.9583 24.6528 19.0278 24.3155 18.869C23.5218 18.5119 22.7034 18.254 21.8601 18.0952C21.0169 17.9365 20.1587 17.8571 19.2857 17.8571C18.1151 17.8571 16.994 18.0556 15.9226 18.4524C14.8512 18.8492 13.8294 19.3651 12.8571 20Z" fill="#2ED0FF"/>
</svg>
