<svg width="13" height="10" viewBox="0 0 13 10" fill="none" xmlns="http://www.w3.org/2000/svg">
<path d="M7.74254 3.54167V2.41071C8.05008 2.31151 8.36754 2.23958 8.69492 2.19494C9.0223 2.1503 9.3596 2.12798 9.70682 2.12798C9.935 2.12798 10.1657 2.14038 10.3988 2.16518C10.6319 2.18998 10.8775 2.22718 11.1354 2.27679V3.37798C10.8378 3.30853 10.5749 3.25893 10.3467 3.22917C10.1185 3.1994 9.90523 3.18452 9.70682 3.18452C9.36952 3.18452 9.03718 3.21429 8.7098 3.27381C8.38242 3.33333 8.06 3.42262 7.74254 3.54167ZM7.74254 7.05357V5.92262C8.02031 5.83333 8.31793 5.76141 8.63539 5.70685C8.95285 5.65228 9.31 5.625 9.70682 5.625C9.97468 5.625 10.2252 5.63988 10.4583 5.66964C10.6914 5.6994 10.9171 5.73909 11.1354 5.78869V6.88988C10.8378 6.82044 10.5749 6.77083 10.3467 6.74107C10.1185 6.71131 9.90523 6.69643 9.70682 6.69643C9.36952 6.69643 9.03718 6.72619 8.7098 6.78571C8.38242 6.84524 8.06 6.93452 7.74254 7.05357ZM7.74254 5.29762V4.16667C8.06 4.06746 8.3849 3.99306 8.71724 3.94345C9.04958 3.89385 9.37944 3.86905 9.70682 3.86905C9.97468 3.86905 10.2252 3.88393 10.4583 3.91369C10.6914 3.94345 10.9171 3.98314 11.1354 4.03274V5.13393C10.8775 5.06448 10.6319 5.01488 10.3988 4.98512C10.1657 4.95536 9.935 4.94048 9.70682 4.94048C9.38936 4.94048 9.06942 4.97024 8.747 5.02976C8.42458 5.08929 8.08976 5.17857 7.74254 5.29762ZM3.27825 7.85714C3.74452 7.85714 4.20087 7.91667 4.6473 8.03571C5.09373 8.15476 5.53023 8.30357 5.95682 8.48214V1.72619C5.54016 1.50794 5.10861 1.34425 4.66218 1.23512C4.21575 1.12599 3.75444 1.07143 3.27825 1.07143C2.91119 1.07143 2.5466 1.10367 2.1845 1.16815C1.8224 1.23264 1.4727 1.33929 1.13539 1.4881V8.21429C1.48262 8.08532 1.8348 7.99355 2.19194 7.93899C2.54908 7.88443 2.91119 7.85714 3.27825 7.85714ZM7.02825 8.48214C7.45484 8.28373 7.89135 8.12996 8.33778 8.02083C8.7842 7.91171 9.24055 7.85714 9.70682 7.85714C10.0739 7.85714 10.4385 7.87946 10.8006 7.92411C11.1627 7.96875 11.5124 8.06548 11.8497 8.21429V1.4881C11.5025 1.35913 11.1503 1.25744 10.7931 1.18304C10.436 1.10863 10.0739 1.07143 9.70682 1.07143C9.23063 1.07143 8.76932 1.12599 8.32289 1.23512C7.87647 1.34425 7.44492 1.50794 7.02825 1.72619V8.48214ZM6.49254 10C6.00643 9.68254 5.49551 9.4246 4.9598 9.22619C4.42408 9.02778 3.86357 8.92857 3.27825 8.92857C2.90127 8.92857 2.52428 8.96577 2.1473 9.04018C1.77031 9.11458 1.40821 9.22619 1.06099 9.375C0.822893 9.47421 0.597199 9.45685 0.383905 9.32292C0.170612 9.18899 0.0639648 8.99306 0.0639648 8.73512V1.25C0.0639648 1.11111 0.101167 0.982143 0.175572 0.863095C0.249977 0.744048 0.351663 0.654762 0.480632 0.595238C0.92706 0.396825 1.38341 0.248016 1.84968 0.14881C2.31595 0.0496032 2.79214 0 3.27825 0C3.84373 0 4.3968 0.0669643 4.93748 0.200893C5.47815 0.334821 5.9965 0.535714 6.49254 0.803571C6.99849 0.545635 7.51932 0.347222 8.05504 0.208333C8.59075 0.0694445 9.14135 0 9.70682 0C10.1929 0 10.6691 0.0496032 11.1354 0.14881C11.6017 0.248016 12.058 0.396825 12.5044 0.595238C12.6334 0.654762 12.7376 0.744048 12.8169 0.863095C12.8963 0.982143 12.936 1.11111 12.936 1.25V8.73512C12.936 8.98314 12.8591 9.18155 12.7053 9.33036C12.5516 9.47917 12.3904 9.51389 12.2217 9.43452C11.8249 9.25595 11.4157 9.12698 10.994 9.04762C10.5724 8.96825 10.1433 8.92857 9.70682 8.92857C9.1215 8.92857 8.56099 9.02778 8.02528 9.22619C7.48956 9.4246 6.97865 9.68254 6.49254 10Z" fill="#EFECF3"/>
</svg>
