<svg width="60" height="60" viewBox="0 0 60 60" fill="none" xmlns="http://www.w3.org/2000/svg">
<rect width="60" height="60" rx="15" fill="#2ED0FF" fill-opacity="0.2"/>
<path d="M33.4821 27.0833V24.8214C34.0972 24.623 34.7321 24.4792 35.3869 24.3899C36.0417 24.3006 36.7163 24.256 37.4107 24.256C37.8671 24.256 38.3284 24.2808 38.7946 24.3304C39.2609 24.38 39.752 24.4544 40.2679 24.5536V26.756C39.6726 26.6171 39.1468 26.5179 38.6905 26.4583C38.2341 26.3988 37.8075 26.369 37.4107 26.369C36.7361 26.369 36.0714 26.4286 35.4167 26.5476C34.7619 26.6667 34.1171 26.8452 33.4821 27.0833ZM33.4821 34.1071V31.8452C34.0377 31.6667 34.6329 31.5228 35.2679 31.4137C35.9028 31.3046 36.6171 31.25 37.4107 31.25C37.9464 31.25 38.4474 31.2798 38.9137 31.3393C39.38 31.3988 39.8314 31.4782 40.2679 31.5774V33.7798C39.6726 33.6409 39.1468 33.5417 38.6905 33.4821C38.2341 33.4226 37.8075 33.3929 37.4107 33.3929C36.7361 33.3929 36.0714 33.4524 35.4167 33.5714C34.7619 33.6905 34.1171 33.869 33.4821 34.1071ZM33.4821 30.5952V28.3333C34.1171 28.1349 34.7669 27.9861 35.4315 27.8869C36.0962 27.7877 36.756 27.7381 37.4107 27.7381C37.9464 27.7381 38.4474 27.7679 38.9137 27.8274C39.38 27.8869 39.8314 27.9663 40.2679 28.0655V30.2679C39.752 30.129 39.2609 30.0298 38.7946 29.9702C38.3284 29.9107 37.8671 29.881 37.4107 29.881C36.7758 29.881 36.1359 29.9405 35.4911 30.0595C34.8462 30.1786 34.1766 30.3571 33.4821 30.5952ZM24.5536 35.7143C25.4861 35.7143 26.3988 35.8333 27.2917 36.0714C28.1845 36.3095 29.0575 36.6071 29.9107 36.9643V23.4524C29.0774 23.0159 28.2143 22.6885 27.3214 22.4702C26.4286 22.252 25.506 22.1429 24.5536 22.1429C23.8194 22.1429 23.0903 22.2073 22.3661 22.3363C21.6419 22.4653 20.9425 22.6786 20.2679 22.9762V36.4286C20.9623 36.1706 21.6667 35.9871 22.381 35.878C23.0952 35.7689 23.8194 35.7143 24.5536 35.7143ZM32.0536 36.9643C32.9067 36.5675 33.7798 36.2599 34.6726 36.0417C35.5655 35.8234 36.4782 35.7143 37.4107 35.7143C38.1448 35.7143 38.874 35.7589 39.5982 35.8482C40.3224 35.9375 41.0218 36.131 41.6964 36.4286V22.9762C41.002 22.7183 40.2976 22.5149 39.5833 22.3661C38.869 22.2173 38.1448 22.1429 37.4107 22.1429C36.4583 22.1429 35.5357 22.252 34.6429 22.4702C33.75 22.6885 32.8869 23.0159 32.0536 23.4524V36.9643ZM30.9821 40C30.0099 39.3651 28.9881 38.8492 27.9167 38.4524C26.8452 38.0556 25.7242 37.8571 24.5536 37.8571C23.7996 37.8571 23.0456 37.9315 22.2917 38.0804C21.5377 38.2292 20.8135 38.4524 20.119 38.75C19.6429 38.9484 19.1915 38.9137 18.7649 38.6458C18.3383 38.378 18.125 37.9861 18.125 37.4702V22.5C18.125 22.2222 18.1994 21.9643 18.3482 21.7262C18.497 21.4881 18.7004 21.3095 18.9583 21.1905C19.8512 20.7937 20.7639 20.496 21.6964 20.2976C22.629 20.0992 23.5813 20 24.5536 20C25.6845 20 26.7907 20.1339 27.872 20.4018C28.9534 20.6696 29.9901 21.0714 30.9821 21.6071C31.994 21.0913 33.0357 20.6944 34.1071 20.4167C35.1786 20.1389 36.2798 20 37.4107 20C38.3829 20 39.3353 20.0992 40.2679 20.2976C41.2004 20.496 42.1131 20.7937 43.006 21.1905C43.2639 21.3095 43.4722 21.4881 43.631 21.7262C43.7897 21.9643 43.869 22.2222 43.869 22.5V37.4702C43.869 37.9663 43.7153 38.3631 43.4077 38.6607C43.1002 38.9583 42.7778 39.0278 42.4405 38.869C41.6468 38.5119 40.8284 38.254 39.9851 38.0952C39.1419 37.9365 38.2837 37.8571 37.4107 37.8571C36.2401 37.8571 35.119 38.0556 34.0476 38.4524C32.9762 38.8492 31.9544 39.3651 30.9821 40Z" fill="#2ED0FF"/>
</svg>
