<svg width="60" height="60" viewBox="0 0 60 60" fill="none" xmlns="http://www.w3.org/2000/svg">
<rect width="60" height="60" rx="15" fill="#FF7022" fill-opacity="0.2"/>
<path fill-rule="evenodd" clip-rule="evenodd" d="M22.5 33.7499C21.1193 33.7499 20 34.8692 20 36.2499C20 37.6306 21.1193 38.7499 22.5 38.7499C23.8807 38.7499 25 37.6306 25 36.2499C25 34.8692 23.8807 33.7499 22.5 33.7499ZM17.5 36.2499C17.5 33.4885 19.7386 31.2499 22.5 31.2499C25.2614 31.2499 27.5 33.4885 27.5 36.2499C27.5 39.0113 25.2614 41.2499 22.5 41.2499C19.7386 41.2499 17.5 39.0113 17.5 36.2499Z" fill="#FF7022"/>
<path fill-rule="evenodd" clip-rule="evenodd" d="M35 33.7499C33.6193 33.7499 32.5 34.8692 32.5 36.2499C32.5 37.6306 33.6193 38.7499 35 38.7499C36.3807 38.7499 37.5 37.6306 37.5 36.2499C37.5 34.8692 36.3807 33.7499 35 33.7499ZM30 36.2499C30 33.4885 32.2386 31.2499 35 31.2499C37.7614 31.2499 40 33.4885 40 36.2499C40 39.0113 37.7614 41.2499 35 41.2499C32.2386 41.2499 30 39.0113 30 36.2499Z" fill="#FF7022"/>
<path fill-rule="evenodd" clip-rule="evenodd" d="M25 20C25 19.3096 25.5596 18.75 26.25 18.75H38.75C39.4404 18.75 40 19.3096 40 20L40 36.2499C40 36.9403 39.4404 37.5 38.75 37.5C38.0596 37.5 37.5 36.9403 37.5 36.2499L37.5 21.25H27.5L27.5 36.2499C27.5 36.9403 26.9404 37.5 26.25 37.5C25.5596 37.5 25 36.9403 25 36.2499L25 20Z" fill="#FF7022"/>
<path fill-rule="evenodd" clip-rule="evenodd" d="M25 24.9999C25 24.3096 25.5596 23.7499 26.25 23.7499H38.75C39.4404 23.7499 40 24.3096 40 24.9999C40 25.6903 39.4404 26.2499 38.75 26.2499H26.25C25.5596 26.2499 25 25.6903 25 24.9999Z" fill="#FF7022"/>
</svg>
