<svg width="23" height="23" viewBox="0 0 23 23" fill="none" xmlns="http://www.w3.org/2000/svg">
<path fill-rule="evenodd" clip-rule="evenodd" d="M5.11111 15.3332C3.69972 15.3332 2.55556 16.4774 2.55556 17.8888C2.55556 19.3002 3.69972 20.4443 5.11111 20.4443C6.52251 20.4443 7.66667 19.3002 7.66667 17.8888C7.66667 16.4774 6.52251 15.3332 5.11111 15.3332ZM0 17.8888C0 15.066 2.28832 12.7777 5.11111 12.7777C7.9339 12.7777 10.2222 15.066 10.2222 17.8888C10.2222 20.7116 7.9339 22.9999 5.11111 22.9999C2.28832 22.9999 0 20.7116 0 17.8888Z" fill="#EFECF3"/>
<path fill-rule="evenodd" clip-rule="evenodd" d="M17.8889 15.3332C16.4775 15.3332 15.3333 16.4774 15.3333 17.8888C15.3333 19.3002 16.4775 20.4443 17.8889 20.4443C19.3003 20.4443 20.4445 19.3002 20.4445 17.8888C20.4445 16.4774 19.3003 15.3332 17.8889 15.3332ZM12.7778 17.8888C12.7778 15.066 15.0661 12.7777 17.8889 12.7777C20.7117 12.7777 23 15.066 23 17.8888C23 20.7116 20.7117 22.9999 17.8889 22.9999C15.0661 22.9999 12.7778 20.7116 12.7778 17.8888Z" fill="#EFECF3"/>
<path fill-rule="evenodd" clip-rule="evenodd" d="M7.66667 1.27778C7.66667 0.572081 8.23875 0 8.94445 0H21.7222C22.4279 0 23 0.572081 23 1.27778L23 17.8888C23 18.5945 22.4279 19.1667 21.7222 19.1667C21.0165 19.1667 20.4445 18.5945 20.4445 17.8888L20.4444 2.55556H10.2222L10.2222 17.8888C10.2222 18.5945 9.65014 19.1667 8.94445 19.1667C8.23875 19.1667 7.66667 18.5945 7.66667 17.8888L7.66667 1.27778Z" fill="#EFECF3"/>
<path fill-rule="evenodd" clip-rule="evenodd" d="M7.66667 6.3888C7.66667 5.6831 8.23875 5.11102 8.94445 5.11102H21.7222C22.4279 5.11102 23 5.6831 23 6.3888C23 7.09449 22.4279 7.66657 21.7222 7.66657H8.94445C8.23875 7.66657 7.66667 7.09449 7.66667 6.3888Z" fill="#EFECF3"/>
</svg>
