<svg width="23" height="5" viewBox="0 0 23 5" fill="none" xmlns="http://www.w3.org/2000/svg">
<path fill-rule="evenodd" clip-rule="evenodd" d="M0 2.5C0 1.11929 1.11929 0 2.5 0C3.88071 0 5 1.11929 5 2.5C5 3.88071 3.88071 5 2.5 5C1.11929 5 0 3.88071 0 2.5Z" fill="white"/>
<path fill-rule="evenodd" clip-rule="evenodd" d="M8.74999 2.5C8.74999 1.11929 9.86928 0 11.25 0C12.6307 0 13.75 1.11929 13.75 2.5C13.75 3.88071 12.6307 5 11.25 5C9.86928 5 8.74999 3.88071 8.74999 2.5Z" fill="white"/>
<path fill-rule="evenodd" clip-rule="evenodd" d="M17.5 2.5C17.5 1.11929 18.6193 0 20 0C21.3807 0 22.5 1.11929 22.5 2.5C22.5 3.88071 21.3807 5 20 5C18.6193 5 17.5 3.88071 17.5 2.5Z" fill="white"/>
</svg>
