<svg width="60" height="60" viewBox="0 0 60 60" fill="none" xmlns="http://www.w3.org/2000/svg">
<rect width="60" height="60" rx="15" fill="#F15BB5"/>
<path fill-rule="evenodd" clip-rule="evenodd" d="M18.75 30C18.75 28.6193 19.8693 27.5 21.25 27.5C22.6307 27.5 23.75 28.6193 23.75 30C23.75 31.3807 22.6307 32.5 21.25 32.5C19.8693 32.5 18.75 31.3807 18.75 30Z" fill="white"/>
<path fill-rule="evenodd" clip-rule="evenodd" d="M27.5 30C27.5 28.6193 28.6193 27.5 30 27.5C31.3807 27.5 32.5 28.6193 32.5 30C32.5 31.3807 31.3807 32.5 30 32.5C28.6193 32.5 27.5 31.3807 27.5 30Z" fill="white"/>
<path fill-rule="evenodd" clip-rule="evenodd" d="M36.25 30C36.25 28.6193 37.3693 27.5 38.75 27.5C40.1307 27.5 41.25 28.6193 41.25 30C41.25 31.3807 40.1307 32.5 38.75 32.5C37.3693 32.5 36.25 31.3807 36.25 30Z" fill="white"/>
</svg>
