<svg width="12" height="4" viewBox="0 0 12 4" fill="none" xmlns="http://www.w3.org/2000/svg">
<path fill-rule="evenodd" clip-rule="evenodd" d="M0.375 2C0.375 1.30964 0.934644 0.75 1.625 0.75C2.31536 0.75 2.875 1.30964 2.875 2C2.875 2.69036 2.31536 3.25 1.625 3.25C0.934644 3.25 0.375 2.69036 0.375 2Z" fill="#EFECF3"/>
<path fill-rule="evenodd" clip-rule="evenodd" d="M4.75 2C4.75 1.30964 5.30964 0.75 6 0.75C6.69035 0.75 7.25 1.30964 7.25 2C7.25 2.69036 6.69035 3.25 6 3.25C5.30964 3.25 4.75 2.69036 4.75 2Z" fill="#EFECF3"/>
<path fill-rule="evenodd" clip-rule="evenodd" d="M9.125 2C9.125 1.30964 9.68464 0.75 10.375 0.75C11.0654 0.75 11.625 1.30964 11.625 2C11.625 2.69036 11.0654 3.25 10.375 3.25C9.68464 3.25 9.125 2.69036 9.125 2Z" fill="#EFECF3"/>
</svg>
