<svg width="60" height="60" viewBox="0 0 60 60" fill="none" xmlns="http://www.w3.org/2000/svg">
<rect width="60" height="60" rx="15" fill="#EFECF3"/>
<path fill-rule="evenodd" clip-rule="evenodd" d="M18.75 22.5C18.75 21.8096 19.3096 21.25 20 21.25H40C40.6904 21.25 41.25 21.8096 41.25 22.5C41.25 23.1904 40.6904 23.75 40 23.75H20C19.3096 23.75 18.75 23.1904 18.75 22.5Z" fill="#454056"/>
<path fill-rule="evenodd" clip-rule="evenodd" d="M18.75 30C18.75 29.3096 19.3096 28.75 20 28.75H32.5C33.1904 28.75 33.75 29.3096 33.75 30C33.75 30.6904 33.1904 31.25 32.5 31.25H20C19.3096 31.25 18.75 30.6904 18.75 30Z" fill="#454056"/>
<path fill-rule="evenodd" clip-rule="evenodd" d="M18.75 37.5C18.75 36.8096 19.3096 36.25 20 36.25H37.5C38.1904 36.25 38.75 36.8096 38.75 37.5C38.75 38.1904 38.1904 38.75 37.5 38.75H20C19.3096 38.75 18.75 38.1904 18.75 37.5Z" fill="#454056"/>
</svg>
