<svg width="18" height="14" viewBox="0 0 23 18" fill="none" xmlns="http://www.w3.org/2000/svg">
<path fill-rule="evenodd" clip-rule="evenodd" d="M0 1.27778C0 0.572081 0.572081 0 1.27778 0H21.7222C22.4279 0 23 0.572081 23 1.27778C23 1.98348 22.4279 2.55556 21.7222 2.55556H1.27778C0.572081 2.55556 0 1.98348 0 1.27778Z" fill="#454056"/>
<path fill-rule="evenodd" clip-rule="evenodd" d="M0 8.94444C0 8.23875 0.572081 7.66667 1.27778 7.66667H14.0556C14.7613 7.66667 15.3333 8.23875 15.3333 8.94444C15.3333 9.65014 14.7613 10.2222 14.0556 10.2222H1.27778C0.572081 10.2222 0 9.65014 0 8.94444Z" fill="#454056"/>
<path fill-rule="evenodd" clip-rule="evenodd" d="M0 16.6111C0 15.9054 0.572081 15.3333 1.27778 15.3333H19.1667C19.8724 15.3333 20.4444 15.9054 20.4444 16.6111C20.4444 17.3168 19.8724 17.8889 19.1667 17.8889H1.27778C0.572081 17.8889 0 17.3168 0 16.6111Z" fill="#454056"/>
</svg>
