<svg width="60" height="60" viewBox="0 0 60 60" fill="none" xmlns="http://www.w3.org/2000/svg">
<rect width="60" height="60" rx="15" fill="#E92E4A" fill-opacity="0.2"/>
<path fill-rule="evenodd" clip-rule="evenodd" d="M32.5 24.9999C32.5 24.3096 33.0597 23.7499 33.75 23.7499H33.7625C34.4529 23.7499 35.0125 24.3096 35.0125 24.9999C35.0125 25.6903 34.4529 26.2499 33.7625 26.2499H33.75C33.0597 26.2499 32.5 25.6903 32.5 24.9999Z" fill="#E92E4A"/>
<path fill-rule="evenodd" clip-rule="evenodd" d="M23.75 21.25C22.3693 21.25 21.25 22.3693 21.25 23.75V36.25C21.25 37.6307 22.3693 38.75 23.75 38.75H36.25C37.6307 38.75 38.75 37.6307 38.75 36.25V23.75C38.75 22.3693 37.6307 21.25 36.25 21.25H23.75ZM18.75 23.75C18.75 20.9886 20.9886 18.75 23.75 18.75H36.25C39.0114 18.75 41.25 20.9886 41.25 23.75V36.25C41.25 39.0114 39.0114 41.25 36.25 41.25H23.75C20.9886 41.25 18.75 39.0114 18.75 36.25V23.75Z" fill="#E92E4A"/>
<path fill-rule="evenodd" clip-rule="evenodd" d="M25.8746 29.6432L20.8839 34.6339C20.3957 35.122 19.6043 35.122 19.1161 34.6339C18.628 34.1457 18.628 33.3543 19.1161 32.8661L24.1161 27.8661L24.1333 27.8493C24.8862 27.1247 25.8302 26.6627 26.875 26.6627C27.9198 26.6627 28.8638 27.1247 29.6167 27.8493L29.6339 27.8661L35.8839 34.1161C36.372 34.6043 36.372 35.3957 35.8839 35.8839C35.3957 36.372 34.6043 36.372 34.1161 35.8839L27.8754 29.6432C27.4914 29.2766 27.1449 29.1627 26.875 29.1627C26.6051 29.1627 26.2586 29.2766 25.8746 29.6432Z" fill="#E92E4A"/>
<path fill-rule="evenodd" clip-rule="evenodd" d="M34.6246 32.1431L33.3839 33.3838C32.8957 33.872 32.1043 33.872 31.6161 33.3838C31.128 32.8957 31.128 32.1042 31.6161 31.6161L32.8661 30.3661L32.8833 30.3492C33.6363 29.6247 34.5803 29.1626 35.625 29.1626C36.6698 29.1626 37.6138 29.6247 38.3667 30.3492L38.3839 30.3661L40.8839 32.8661C41.372 33.3542 41.372 34.1457 40.8839 34.6338C40.3957 35.122 39.6043 35.122 39.1161 34.6338L36.6254 32.1431C36.2414 31.7766 35.8949 31.6626 35.625 31.6626C35.3551 31.6626 35.0086 31.7766 34.6246 32.1431Z" fill="#E92E4A"/>
</svg>
