<svg width="23" height="23" viewBox="0 0 23 23" fill="none" xmlns="http://www.w3.org/2000/svg">
<path fill-rule="evenodd" clip-rule="evenodd" d="M14.0556 6.38879C14.0556 5.6831 14.6276 5.11102 15.3333 5.11102H15.3461C16.0518 5.11102 16.6239 5.6831 16.6239 6.38879C16.6239 7.09449 16.0518 7.66657 15.3461 7.66657H15.3333C14.6276 7.66657 14.0556 7.09449 14.0556 6.38879Z" fill="#E92E4A"/>
<path fill-rule="evenodd" clip-rule="evenodd" d="M5.11111 2.55556C3.69972 2.55556 2.55556 3.69972 2.55556 5.11111V17.8889C2.55556 19.3003 3.69972 20.4444 5.11111 20.4444H17.8889C19.3003 20.4444 20.4444 19.3003 20.4444 17.8889V5.11111C20.4444 3.69972 19.3003 2.55556 17.8889 2.55556H5.11111ZM0 5.11111C0 2.28832 2.28832 0 5.11111 0H17.8889C20.7117 0 23 2.28832 23 5.11111V17.8889C23 20.7117 20.7117 23 17.8889 23H5.11111C2.28832 23 0 20.7117 0 17.8889V5.11111Z" fill="#E92E4A"/>
<path fill-rule="evenodd" clip-rule="evenodd" d="M7.2829 11.1353L2.1813 16.2369C1.6823 16.7359 0.873256 16.7359 0.374253 16.2369C-0.124751 15.7379 -0.124751 14.9288 0.374252 14.4298L5.48536 9.3187L5.50291 9.30149C6.27261 8.56085 7.23758 8.0885 8.30555 8.0885C9.37353 8.0885 10.3385 8.56085 11.1082 9.30149L11.1257 9.3187L17.5146 15.7076C18.0136 16.2066 18.0136 17.0156 17.5146 17.5146C17.0156 18.0136 16.2066 18.0136 15.7076 17.5146L9.32821 11.1353C8.93563 10.7605 8.58148 10.6441 8.30555 10.6441C8.02963 10.6441 7.67548 10.7605 7.2829 11.1353Z" fill="#E92E4A"/>
<path fill-rule="evenodd" clip-rule="evenodd" d="M16.2274 13.6908L14.9591 14.959C14.4601 15.458 13.651 15.458 13.152 14.959C12.653 14.46 12.653 13.651 13.152 13.152L14.4298 11.8742L14.4474 11.857C15.2171 11.1164 16.182 10.644 17.25 10.644C18.318 10.644 19.283 11.1164 20.0527 11.857L20.0702 11.8742L22.6258 14.4298C23.1248 14.9288 23.1248 15.7378 22.6258 16.2368C22.1268 16.7358 21.3177 16.7358 20.8187 16.2368L18.2727 13.6908C17.8801 13.316 17.5259 13.1996 17.25 13.1996C16.9741 13.1996 16.6199 13.316 16.2274 13.6908Z" fill="#E92E4A"/>
</svg>
